<svg version="1.1" xmlns="http://www.w3.org/2000/svg" xmlns:xlink="http://www.w3.org/1999/xlink" width="497" height="115"><defs><clipPath id="OktRKvceUkac"><path fill="none" stroke="none" d=" M 0 0 L 497 0 L 497 115 L 0 115 L 0 0 Z"/></clipPath></defs><g transform="scale(1,1)" clip-path="url(#OktRKvceUkac)"><g transform="translate(-70,-258)"><path fill="rgb(101,87,210)" stroke="none" paint-order="stroke fill markers" fill-rule="evenodd" d=" M 450 115 L 472 115 C 473.1045694996616 115 474 115.8954305003384 474 117 L 474 139 C 474 140.10456949966158 473.1045694996616 141 472 141 L 450 141 C 448.8954305003384 141 448 140.10456949966158 448 139 L 448 117 C 448 115.8954305003384 448.8954305003384 115 450 115 Z" fill-opacity="1"/><g transform="translate(448,115)"><path fill="none" stroke="rgb(255,255,255)" paint-order="fill stroke markers" d=" M 4.44 13.76 L 9.75 19.07 L 21.99 6.83" stroke-opacity="1" stroke-linecap="square" stroke-miterlimit="10" stroke-width="2.6"/><g transform="translate(-448,-115)"><text fill="rgb(0,0,0)" stroke="none" font-family="geogebra-sans-serif, sans-serif" font-size="32px" font-style="normal" font-weight="normal" text-decoration="normal" x="483" y="140" text-anchor="start" dominant-baseline="alphabetic" fill-opacity="1">Serif</text><g transform="scale(35,35)"><g transform="translate(2.2857142857142856,9.232175257142858)"><path fill="rgb(0,0,0)" stroke="none" paint-order="stroke fill markers" d=" M 0.088 -0.059000000000000004 L 0.088 -0.059000000000000004 L 0.146 -0.29 Q 0.162 -0.354 0.162 -0.374 Q 0.162 -0.42 0.131 -0.42 Q 0.09 -0.42 0.064 -0.325 Q 0.061 -0.314 0.058 -0.301 Q 0.047 -0.279 0.041 -0.278 Q 0.029 -0.278 0.029 -0.28800000000000003 Q 0.029 -0.304 0.047 -0.355 Q 0.054 -0.373 0.06 -0.385 Q 0.084 -0.434 0.12 -0.441 Q 0.127 -0.442 0.134 -0.442 Q 0.19 -0.442 0.215 -0.394 Q 0.221 -0.383 0.224 -0.37 Q 0.225 -0.368 0.225 -0.365 Q 0.28300000000000003 -0.437 0.353 -0.442 Q 0.40900000000000003 -0.442 0.429 -0.403 Q 0.436 -0.391 0.436 -0.377 Q 0.436 -0.338 0.403 -0.323 Q 0.392 -0.318 0.381 -0.318 Q 0.35000000000000003 -0.318 0.34400000000000003 -0.34500000000000003 Q 0.343 -0.34900000000000003 0.343 -0.353 Q 0.343 -0.386 0.377 -0.402 L 0.378 -0.403 Q 0.386 -0.406 0.395 -0.40800000000000003 L 0.375 -0.417 Q 0.362 -0.419 0.353 -0.42 Q 0.311 -0.42 0.273 -0.387 Q 0.242 -0.359 0.22 -0.313 Q 0.218 -0.308 0.217 -0.305 L 0.185 -0.17500000000000002 L 0.145 -0.017 Q 0.136 0.009000000000000001 0.108 0.011 Q 0.083 0.006 0.079 -0.016 Q 0.079 -0.014 0.088 -0.059000000000000004 Z"/></g><g transform="translate(3.0424920634920634,9.232175257142858)"><path fill="rgb(0,0,0)" stroke="none" paint-order="stroke fill markers" d=" M 0.687 -0.327 L 0.09 -0.327 Q 0.058 -0.327 0.056 -0.34700000000000003 Q 0.056 -0.367 0.089 -0.367 L 0.6880000000000001 -0.367 Q 0.72 -0.367 0.721 -0.34700000000000003 Q 0.721 -0.327 0.687 -0.327 M 0.6880000000000001 -0.133 L 0.089 -0.133 Q 0.057 -0.133 0.056 -0.153 Q 0.056 -0.17300000000000001 0.09 -0.17300000000000001 L 0.687 -0.17300000000000001 Q 0.719 -0.17300000000000001 0.721 -0.153 Q 0.721 -0.133 0.6880000000000001 -0.133 Z"/></g><g transform="translate(4.0982698412698415,9.232175257142858)"><path fill="rgb(0,0,0)" stroke="none" paint-order="stroke fill markers" d=" M 0.294 -0.64 L 0.294 -0.079 Q 0.294 -0.049 0.306 -0.041 Q 0.323 -0.031 0.387 -0.031 L 0.419 -0.031 L 0.419 0 Q 0.384 -0.003 0.257 -0.003 Q 0.13 -0.003 0.095 0 L 0.095 -0.031 L 0.127 -0.031 Q 0.20400000000000001 -0.031 0.215 -0.049 L 0.216 -0.05 Q 0.22 -0.058 0.22 -0.079 L 0.22 -0.597 Q 0.168 -0.5710000000000001 0.089 -0.5710000000000001 L 0.089 -0.602 Q 0.209 -0.602 0.271 -0.666 Q 0.29 -0.666 0.293 -0.659 L 0.293 -0.659 L 0.293 -0.658 Q 0.294 -0.655 0.294 -0.64 Z"/></g><g transform="translate(4.820492063492064,9.232175257142858)"><path fill="rgb(0,0,0)" stroke="none" paint-order="stroke fill markers" d=" M 0.661 -0.23 L 0.116 -0.23 Q 0.084 -0.23 0.083 -0.25 Q 0.083 -0.27 0.116 -0.27 L 0.661 -0.27 Q 0.6930000000000001 -0.27 0.6940000000000001 -0.25 Q 0.6940000000000001 -0.23 0.661 -0.23 Z"/></g><g transform="translate(9.258316353355301,8.555667257142858)"><path fill="rgb(0,0,0)" stroke="none" paint-order="stroke fill markers" d=" M 0.227 -0.316 L 0.227 -0.078 Q 0.227 -0.048 0.23900000000000002 -0.04 Q 0.253 -0.031 0.306 -0.031 L 0.33 -0.031 L 0.33 0 Q 0.295 -0.003 0.182 -0.003 Q 0.07 -0.003 0.035 0 L 0.035 -0.031 L 0.059000000000000004 -0.031 Q 0.124 -0.031 0.134 -0.048 Q 0.138 -0.055 0.138 -0.078 L 0.138 -0.605 Q 0.138 -0.635 0.126 -0.643 Q 0.112 -0.652 0.059000000000000004 -0.652 L 0.035 -0.652 L 0.035 -0.683 L 0.388 -0.683 Q 0.504 -0.683 0.5740000000000001 -0.611 Q 0.624 -0.561 0.624 -0.497 Q 0.624 -0.418 0.547 -0.363 Q 0.481 -0.316 0.396 -0.316 L 0.227 -0.316 M 0.224 -0.342 L 0.362 -0.342 Q 0.514 -0.342 0.521 -0.47400000000000003 L 0.521 -0.497 Q 0.521 -0.578 0.485 -0.613 Q 0.445 -0.652 0.362 -0.652 L 0.273 -0.652 Q 0.234 -0.652 0.227 -0.64 L 0.227 -0.639 L 0.227 -0.639 L 0.227 -0.638 Q 0.224 -0.632 0.224 -0.612 L 0.224 -0.342 Z"/></g><g transform="translate(9.939316353355302,8.555667257142858)"><path fill="rgb(0,0,0)" stroke="none" paint-order="stroke fill markers" d=" M 0.34900000000000003 -0.388 L 0.34900000000000003 -0.388 Q 0.428 -0.369 0.47100000000000003 -0.294 Q 0.499 -0.244 0.499 -0.186 Q 0.499 -0.091 0.433 -0.029 Q 0.378 0.022 0.302 0.022 Q 0.194 0.022 0.128 -0.038 L 0.128 -0.038 L 0.11800000000000001 -0.048 Q 0.082 0.01 0.082 0.009000000000000001 Q 0.074 0.022 0.067 0.022 Q 0.057 0.013000000000000001 0.056 -0.002 L 0.056 -0.202 Q 0.056 -0.224 0.063 -0.226 L 0.063 -0.226 L 0.064 -0.227 L 0.069 -0.227 Q 0.08 -0.227 0.081 -0.217 Q 0.084 -0.121 0.139 -0.067 L 0.14300000000000002 -0.063 Q 0.201 -0.009000000000000001 0.301 -0.009000000000000001 Q 0.376 -0.009000000000000001 0.41400000000000003 -0.075 Q 0.435 -0.111 0.435 -0.152 Q 0.435 -0.20600000000000002 0.404 -0.244 Q 0.377 -0.28 0.326 -0.293 L 0.325 -0.294 Q 0.325 -0.293 0.319 -0.295 Q 0.195 -0.325 0.187 -0.328 Q 0.108 -0.355 0.073 -0.431 Q 0.056 -0.46900000000000003 0.056 -0.511 Q 0.056 -0.602 0.125 -0.66 Q 0.179 -0.705 0.251 -0.705 Q 0.336 -0.705 0.398 -0.648 L 0.41100000000000003 -0.635 L 0.446 -0.6920000000000001 Q 0.453 -0.705 0.461 -0.705 Q 0.47100000000000003 -0.6960000000000001 0.47200000000000003 -0.681 L 0.47200000000000003 -0.48 Q 0.47200000000000003 -0.459 0.466 -0.457 L 0.465 -0.457 L 0.464 -0.456 L 0.459 -0.456 Q 0.449 -0.456 0.447 -0.468 Q 0.419 -0.675 0.252 -0.677 Q 0.18 -0.677 0.14200000000000002 -0.619 L 0.14100000000000001 -0.618 Q 0.12 -0.585 0.12 -0.546 Q 0.12 -0.48 0.17300000000000001 -0.441 Q 0.194 -0.425 0.221 -0.419 L 0.34900000000000003 -0.388 Z"/></g><g transform="translate(10.495316353355303,8.555667257142858)"><path fill="rgb(0,0,0)" stroke="none" paint-order="stroke fill markers" d=" M 0.227 -0.316 L 0.227 -0.078 Q 0.227 -0.048 0.23900000000000002 -0.04 Q 0.253 -0.031 0.306 -0.031 L 0.33 -0.031 L 0.33 0 Q 0.295 -0.003 0.182 -0.003 Q 0.07 -0.003 0.035 0 L 0.035 -0.031 L 0.059000000000000004 -0.031 Q 0.124 -0.031 0.134 -0.048 Q 0.138 -0.055 0.138 -0.078 L 0.138 -0.605 Q 0.138 -0.635 0.126 -0.643 Q 0.112 -0.652 0.059000000000000004 -0.652 L 0.035 -0.652 L 0.035 -0.683 L 0.388 -0.683 Q 0.504 -0.683 0.5740000000000001 -0.611 Q 0.624 -0.561 0.624 -0.497 Q 0.624 -0.418 0.547 -0.363 Q 0.481 -0.316 0.396 -0.316 L 0.227 -0.316 M 0.224 -0.342 L 0.362 -0.342 Q 0.514 -0.342 0.521 -0.47400000000000003 L 0.521 -0.497 Q 0.521 -0.578 0.485 -0.613 Q 0.445 -0.652 0.362 -0.652 L 0.273 -0.652 Q 0.234 -0.652 0.227 -0.64 L 0.227 -0.639 L 0.227 -0.639 L 0.227 -0.638 Q 0.224 -0.632 0.224 -0.612 L 0.224 -0.342 Z"/></g><g transform="translate(11.1763163533553,8.142942857142858) scale(0.7,0.7)"><path fill="rgb(0,0,0)" stroke="none" paint-order="stroke fill markers" d=" M 0.17200000000000001 -0.377 L 0.17200000000000001 -0.377 Q 0.23 -0.442 0.309 -0.442 Q 0.401 -0.442 0.465 -0.369 Q 0.521 -0.304 0.521 -0.216 Q 0.521 -0.112 0.444 -0.044 Q 0.38 0.011 0.298 0.011 Q 0.218 0.011 0.17 -0.058 Q 0.168 -0.06 0.167 -0.062 L 0.131 0 L 0.106 0 L 0.106 -0.596 Q 0.106 -0.635 0.092 -0.644 L 0.091 -0.644 Q 0.08 -0.65 0.053 -0.652 L 0.028 -0.652 L 0.028 -0.683 L 0.17200000000000001 -0.6940000000000001 L 0.17200000000000001 -0.377 M 0.17500000000000002 -0.114 L 0.17500000000000002 -0.114 Q 0.17500000000000002 -0.094 0.185 -0.079 L 0.185 -0.078 L 0.189 -0.07200000000000001 Q 0.229 -0.011 0.294 -0.011 Q 0.364 -0.011 0.40700000000000003 -0.075 Q 0.438 -0.123 0.438 -0.217 Q 0.438 -0.31 0.40900000000000003 -0.356 Q 0.369 -0.42 0.304 -0.42 Q 0.234 -0.42 0.19 -0.362 L 0.186 -0.356 Q 0.17500000000000002 -0.334 0.17500000000000002 -0.32 L 0.17500000000000002 -0.114 Z"/></g><g transform="translate(11.565516353355301,8.142942857142858) scale(0.7,0.7)"><path fill="rgb(0,0,0)" stroke="none" paint-order="stroke fill markers" d=" M 0.177 -0.442 L 0.177 -0.442 L 0.177 -0.075 Q 0.177 -0.044 0.189 -0.037 L 0.189 -0.037 Q 0.201 -0.031 0.247 -0.031 L 0.247 0 Q 0.145 -0.003 0.14300000000000002 -0.003 Q 0.129 -0.003 0.033 0 L 0.033 -0.031 Q 0.092 -0.031 0.10200000000000001 -0.04 L 0.10400000000000001 -0.042 Q 0.111 -0.05 0.111 -0.076 L 0.111 -0.34500000000000003 Q 0.111 -0.385 0.095 -0.393 L 0.094 -0.393 L 0.094 -0.393 L 0.093 -0.394 L 0.093 -0.394 Q 0.08 -0.4 0.037 -0.4 L 0.037 -0.431 L 0.177 -0.442 M 0.181 -0.616 Q 0.181 -0.579 0.148 -0.5670000000000001 Q 0.138 -0.5630000000000001 0.128 -0.5630000000000001 Q 0.093 -0.5630000000000001 0.079 -0.595 L 0.079 -0.596 Q 0.075 -0.606 0.075 -0.616 Q 0.075 -0.647 0.10300000000000001 -0.662 Q 0.114 -0.669 0.128 -0.669 Q 0.162 -0.669 0.176 -0.639 Q 0.181 -0.628 0.181 -0.616 Z"/></g><g transform="translate(11.7601163533553,8.142942857142858) scale(0.7,0.7)"><path fill="rgb(0,0,0)" stroke="none" paint-order="stroke fill markers" d=" M 0.333 -0.076 Q 0.308 -0.014 0.245 0.005 Q 0.225 0.011 0.202 0.011 Q 0.117 0.011 0.07100000000000001 -0.03 Q 0.042 -0.056 0.042 -0.095 Q 0.042 -0.17200000000000001 0.127 -0.218 Q 0.134 -0.222 0.14200000000000002 -0.225 Q 0.203 -0.254 0.321 -0.261 L 0.326 -0.261 L 0.326 -0.298 Q 0.326 -0.383 0.265 -0.41500000000000004 Q 0.244 -0.426 0.22 -0.426 Q 0.154 -0.426 0.11800000000000001 -0.387 Q 0.115 -0.383 0.112 -0.38 Q 0.159 -0.374 0.163 -0.334 Q 0.163 -0.3 0.132 -0.29 Q 0.125 -0.28800000000000003 0.117 -0.28800000000000003 Q 0.081 -0.28800000000000003 0.073 -0.321 Q 0.07100000000000001 -0.326 0.07100000000000001 -0.335 Q 0.07100000000000001 -0.395 0.134 -0.427 Q 0.17300000000000001 -0.448 0.222 -0.448 Q 0.304 -0.448 0.359 -0.393 Q 0.394 -0.357 0.395 -0.293 L 0.395 -0.292 L 0.395 -0.275 L 0.395 -0.075 Q 0.395 -0.046 0.41300000000000003 -0.032 Q 0.421 -0.025 0.432 -0.025 Q 0.467 -0.025 0.468 -0.089 L 0.468 -0.145 L 0.493 -0.145 L 0.493 -0.089 Q 0.493 -0.016 0.433 0.002 Q 0.421 0.006 0.41100000000000003 0.006 Q 0.362 0.006 0.341 -0.046 Q 0.335 -0.06 0.333 -0.076 M 0.326 -0.24 Q 0.17200000000000001 -0.234 0.13 -0.146 Q 0.11900000000000001 -0.122 0.11900000000000001 -0.096 Q 0.11900000000000001 -0.045 0.165 -0.021 Q 0.185 -0.011 0.209 -0.011 Q 0.261 -0.011 0.296 -0.052000000000000005 Q 0.326 -0.08600000000000001 0.326 -0.14 L 0.326 -0.24 Z"/></g><g transform="translate(12.1101163533553,8.142942857142858) scale(0.7,0.7)"><path fill="rgb(0,0,0)" stroke="none" paint-order="stroke fill markers" d=" M 0.20800000000000002 -0.194 L 0.20800000000000002 -0.194 Q 0.122 -0.211 0.095 -0.227 Q 0.085 -0.232 0.076 -0.24 Q 0.033 -0.275 0.033 -0.325 Q 0.033 -0.395 0.095 -0.427 Q 0.134 -0.448 0.193 -0.448 Q 0.249 -0.448 0.28700000000000003 -0.42 Q 0.298 -0.429 0.304 -0.436 Q 0.317 -0.448 0.324 -0.448 Q 0.334 -0.439 0.335 -0.424 L 0.335 -0.323 Q 0.335 -0.302 0.329 -0.3 L 0.328 -0.3 L 0.327 -0.299 L 0.322 -0.299 Q 0.311 -0.299 0.31 -0.308 Q 0.303 -0.40900000000000003 0.227 -0.426 Q 0.211 -0.429 0.193 -0.429 Q 0.099 -0.429 0.083 -0.371 Q 0.081 -0.362 0.081 -0.353 Q 0.081 -0.302 0.158 -0.281 Q 0.17300000000000001 -0.277 0.20400000000000001 -0.271 Q 0.276 -0.257 0.307 -0.232 Q 0.313 -0.228 0.318 -0.223 Q 0.36 -0.181 0.36 -0.128 Q 0.36 -0.043000000000000003 0.29 -0.008 Q 0.252 0.011 0.199 0.011 Q 0.134 0.011 0.089 -0.032 L 0.069 -0.009000000000000001 Q 0.049 0.011 0.044 0.011 Q 0.034 0.002 0.033 -0.013000000000000001 L 0.033 -0.145 Q 0.033 -0.167 0.04 -0.169 L 0.04 -0.169 L 0.041 -0.17 L 0.046 -0.17 Q 0.056 -0.17 0.059000000000000004 -0.159 Q 0.059000000000000004 -0.157 0.06 -0.153 Q 0.08600000000000001 -0.037 0.159 -0.016 Q 0.177 -0.011 0.199 -0.011 Q 0.289 -0.011 0.308 -0.074 Q 0.312 -0.08700000000000001 0.312 -0.10200000000000001 Q 0.312 -0.17500000000000002 0.20800000000000002 -0.194 Z"/></g><rect fill="rgb(0,0,0)" stroke="none" x="5.854871908910857" y="8.962175757142857" width="9.948721231887461" height="0.039999"/><g transform="translate(5.854871908910857,10.020696157142856)"><path fill="rgb(0,0,0)" stroke="none" paint-order="stroke fill markers" d=" M 0.357 -0.292 L 0.116 -0.008 Q 0.099 0.013000000000000001 0.083 0.013000000000000001 Q 0.06 0.013000000000000001 0.054 -0.008 Q 0.053 -0.012 0.053 -0.016 Q 0.053 -0.029 0.07100000000000001 -0.047 L 0.34700000000000003 -0.321 L 0.25 -0.593 Q 0.228 -0.653 0.213 -0.664 L 0.212 -0.664 L 0.21 -0.666 L 0.209 -0.666 Q 0.201 -0.67 0.185 -0.673 Q 0.178 -0.673 0.176 -0.683 Q 0.176 -0.6940000000000001 0.194 -0.6940000000000001 Q 0.29 -0.6940000000000001 0.316 -0.623 L 0.52 -0.054 Q 0.532 -0.02 0.543 -0.008 Q 0.548 -0.001 0.548 0.001 Q 0.548 0.01 0.537 0.011 L 0.515 0.011 Q 0.483 0.011 0.47200000000000003 0.001 Q 0.467 -0.004 0.462 -0.011 Q 0.454 -0.023 0.392 -0.197 Q 0.371 -0.256 0.357 -0.292 Z"/></g><g transform="translate(6.437871908910857,10.020696157142856)"><path fill="rgb(0,0,0)" stroke="none" paint-order="stroke fill markers" d=" M 0.227 -0.316 L 0.227 -0.078 Q 0.227 -0.048 0.23900000000000002 -0.04 Q 0.253 -0.031 0.306 -0.031 L 0.33 -0.031 L 0.33 0 Q 0.295 -0.003 0.182 -0.003 Q 0.07 -0.003 0.035 0 L 0.035 -0.031 L 0.059000000000000004 -0.031 Q 0.124 -0.031 0.134 -0.048 Q 0.138 -0.055 0.138 -0.078 L 0.138 -0.605 Q 0.138 -0.635 0.126 -0.643 Q 0.112 -0.652 0.059000000000000004 -0.652 L 0.035 -0.652 L 0.035 -0.683 L 0.388 -0.683 Q 0.504 -0.683 0.5740000000000001 -0.611 Q 0.624 -0.561 0.624 -0.497 Q 0.624 -0.418 0.547 -0.363 Q 0.481 -0.316 0.396 -0.316 L 0.227 -0.316 M 0.224 -0.342 L 0.362 -0.342 Q 0.514 -0.342 0.521 -0.47400000000000003 L 0.521 -0.497 Q 0.521 -0.578 0.485 -0.613 Q 0.445 -0.652 0.362 -0.652 L 0.273 -0.652 Q 0.234 -0.652 0.227 -0.64 L 0.227 -0.639 L 0.227 -0.639 L 0.227 -0.638 Q 0.224 -0.632 0.224 -0.612 L 0.224 -0.342 Z"/></g><g transform="translate(7.118871908910857,10.020696157142856)"><path fill="rgb(0,0,0)" stroke="none" paint-order="stroke fill markers" d=" M 0.34900000000000003 -0.388 L 0.34900000000000003 -0.388 Q 0.428 -0.369 0.47100000000000003 -0.294 Q 0.499 -0.244 0.499 -0.186 Q 0.499 -0.091 0.433 -0.029 Q 0.378 0.022 0.302 0.022 Q 0.194 0.022 0.128 -0.038 L 0.128 -0.038 L 0.11800000000000001 -0.048 Q 0.082 0.01 0.082 0.009000000000000001 Q 0.074 0.022 0.067 0.022 Q 0.057 0.013000000000000001 0.056 -0.002 L 0.056 -0.202 Q 0.056 -0.224 0.063 -0.226 L 0.063 -0.226 L 0.064 -0.227 L 0.069 -0.227 Q 0.08 -0.227 0.081 -0.217 Q 0.084 -0.121 0.139 -0.067 L 0.14300000000000002 -0.063 Q 0.201 -0.009000000000000001 0.301 -0.009000000000000001 Q 0.376 -0.009000000000000001 0.41400000000000003 -0.075 Q 0.435 -0.111 0.435 -0.152 Q 0.435 -0.20600000000000002 0.404 -0.244 Q 0.377 -0.28 0.326 -0.293 L 0.325 -0.294 Q 0.325 -0.293 0.319 -0.295 Q 0.195 -0.325 0.187 -0.328 Q 0.108 -0.355 0.073 -0.431 Q 0.056 -0.46900000000000003 0.056 -0.511 Q 0.056 -0.602 0.125 -0.66 Q 0.179 -0.705 0.251 -0.705 Q 0.336 -0.705 0.398 -0.648 L 0.41100000000000003 -0.635 L 0.446 -0.6920000000000001 Q 0.453 -0.705 0.461 -0.705 Q 0.47100000000000003 -0.6960000000000001 0.47200000000000003 -0.681 L 0.47200000000000003 -0.48 Q 0.47200000000000003 -0.459 0.466 -0.457 L 0.465 -0.457 L 0.464 -0.456 L 0.459 -0.456 Q 0.449 -0.456 0.447 -0.468 Q 0.419 -0.675 0.252 -0.677 Q 0.18 -0.677 0.14200000000000002 -0.619 L 0.14100000000000001 -0.618 Q 0.12 -0.585 0.12 -0.546 Q 0.12 -0.48 0.17300000000000001 -0.441 Q 0.194 -0.425 0.221 -0.419 L 0.34900000000000003 -0.388 Z"/></g><g transform="translate(7.674871908910857,10.020696157142856)"><path fill="rgb(0,0,0)" stroke="none" paint-order="stroke fill markers" d=" M 0.227 -0.316 L 0.227 -0.078 Q 0.227 -0.048 0.23900000000000002 -0.04 Q 0.253 -0.031 0.306 -0.031 L 0.33 -0.031 L 0.33 0 Q 0.295 -0.003 0.182 -0.003 Q 0.07 -0.003 0.035 0 L 0.035 -0.031 L 0.059000000000000004 -0.031 Q 0.124 -0.031 0.134 -0.048 Q 0.138 -0.055 0.138 -0.078 L 0.138 -0.605 Q 0.138 -0.635 0.126 -0.643 Q 0.112 -0.652 0.059000000000000004 -0.652 L 0.035 -0.652 L 0.035 -0.683 L 0.388 -0.683 Q 0.504 -0.683 0.5740000000000001 -0.611 Q 0.624 -0.561 0.624 -0.497 Q 0.624 -0.418 0.547 -0.363 Q 0.481 -0.316 0.396 -0.316 L 0.227 -0.316 M 0.224 -0.342 L 0.362 -0.342 Q 0.514 -0.342 0.521 -0.47400000000000003 L 0.521 -0.497 Q 0.521 -0.578 0.485 -0.613 Q 0.445 -0.652 0.362 -0.652 L 0.273 -0.652 Q 0.234 -0.652 0.227 -0.64 L 0.227 -0.639 L 0.227 -0.639 L 0.227 -0.638 Q 0.224 -0.632 0.224 -0.612 L 0.224 -0.342 Z"/></g><g transform="translate(8.355871908910856,9.607971757142856) scale(0.7,0.7)"><path fill="rgb(0,0,0)" stroke="none" paint-order="stroke fill markers" d=" M 0.17200000000000001 -0.377 L 0.17200000000000001 -0.377 Q 0.23 -0.442 0.309 -0.442 Q 0.401 -0.442 0.465 -0.369 Q 0.521 -0.304 0.521 -0.216 Q 0.521 -0.112 0.444 -0.044 Q 0.38 0.011 0.298 0.011 Q 0.218 0.011 0.17 -0.058 Q 0.168 -0.06 0.167 -0.062 L 0.131 0 L 0.106 0 L 0.106 -0.596 Q 0.106 -0.635 0.092 -0.644 L 0.091 -0.644 Q 0.08 -0.65 0.053 -0.652 L 0.028 -0.652 L 0.028 -0.683 L 0.17200000000000001 -0.6940000000000001 L 0.17200000000000001 -0.377 M 0.17500000000000002 -0.114 L 0.17500000000000002 -0.114 Q 0.17500000000000002 -0.094 0.185 -0.079 L 0.185 -0.078 L 0.189 -0.07200000000000001 Q 0.229 -0.011 0.294 -0.011 Q 0.364 -0.011 0.40700000000000003 -0.075 Q 0.438 -0.123 0.438 -0.217 Q 0.438 -0.31 0.40900000000000003 -0.356 Q 0.369 -0.42 0.304 -0.42 Q 0.234 -0.42 0.19 -0.362 L 0.186 -0.356 Q 0.17500000000000002 -0.334 0.17500000000000002 -0.32 L 0.17500000000000002 -0.114 Z"/></g><g transform="translate(8.745071908910857,9.607971757142856) scale(0.7,0.7)"><path fill="rgb(0,0,0)" stroke="none" paint-order="stroke fill markers" d=" M 0.177 -0.442 L 0.177 -0.442 L 0.177 -0.075 Q 0.177 -0.044 0.189 -0.037 L 0.189 -0.037 Q 0.201 -0.031 0.247 -0.031 L 0.247 0 Q 0.145 -0.003 0.14300000000000002 -0.003 Q 0.129 -0.003 0.033 0 L 0.033 -0.031 Q 0.092 -0.031 0.10200000000000001 -0.04 L 0.10400000000000001 -0.042 Q 0.111 -0.05 0.111 -0.076 L 0.111 -0.34500000000000003 Q 0.111 -0.385 0.095 -0.393 L 0.094 -0.393 L 0.094 -0.393 L 0.093 -0.394 L 0.093 -0.394 Q 0.08 -0.4 0.037 -0.4 L 0.037 -0.431 L 0.177 -0.442 M 0.181 -0.616 Q 0.181 -0.579 0.148 -0.5670000000000001 Q 0.138 -0.5630000000000001 0.128 -0.5630000000000001 Q 0.093 -0.5630000000000001 0.079 -0.595 L 0.079 -0.596 Q 0.075 -0.606 0.075 -0.616 Q 0.075 -0.647 0.10300000000000001 -0.662 Q 0.114 -0.669 0.128 -0.669 Q 0.162 -0.669 0.176 -0.639 Q 0.181 -0.628 0.181 -0.616 Z"/></g><g transform="translate(8.939671908910857,9.607971757142856) scale(0.7,0.7)"><path fill="rgb(0,0,0)" stroke="none" paint-order="stroke fill markers" d=" M 0.333 -0.076 Q 0.308 -0.014 0.245 0.005 Q 0.225 0.011 0.202 0.011 Q 0.117 0.011 0.07100000000000001 -0.03 Q 0.042 -0.056 0.042 -0.095 Q 0.042 -0.17200000000000001 0.127 -0.218 Q 0.134 -0.222 0.14200000000000002 -0.225 Q 0.203 -0.254 0.321 -0.261 L 0.326 -0.261 L 0.326 -0.298 Q 0.326 -0.383 0.265 -0.41500000000000004 Q 0.244 -0.426 0.22 -0.426 Q 0.154 -0.426 0.11800000000000001 -0.387 Q 0.115 -0.383 0.112 -0.38 Q 0.159 -0.374 0.163 -0.334 Q 0.163 -0.3 0.132 -0.29 Q 0.125 -0.28800000000000003 0.117 -0.28800000000000003 Q 0.081 -0.28800000000000003 0.073 -0.321 Q 0.07100000000000001 -0.326 0.07100000000000001 -0.335 Q 0.07100000000000001 -0.395 0.134 -0.427 Q 0.17300000000000001 -0.448 0.222 -0.448 Q 0.304 -0.448 0.359 -0.393 Q 0.394 -0.357 0.395 -0.293 L 0.395 -0.292 L 0.395 -0.275 L 0.395 -0.075 Q 0.395 -0.046 0.41300000000000003 -0.032 Q 0.421 -0.025 0.432 -0.025 Q 0.467 -0.025 0.468 -0.089 L 0.468 -0.145 L 0.493 -0.145 L 0.493 -0.089 Q 0.493 -0.016 0.433 0.002 Q 0.421 0.006 0.41100000000000003 0.006 Q 0.362 0.006 0.341 -0.046 Q 0.335 -0.06 0.333 -0.076 M 0.326 -0.24 Q 0.17200000000000001 -0.234 0.13 -0.146 Q 0.11900000000000001 -0.122 0.11900000000000001 -0.096 Q 0.11900000000000001 -0.045 0.165 -0.021 Q 0.185 -0.011 0.209 -0.011 Q 0.261 -0.011 0.296 -0.052000000000000005 Q 0.326 -0.08600000000000001 0.326 -0.14 L 0.326 -0.24 Z"/></g><g transform="translate(9.289671908910856,9.607971757142856) scale(0.7,0.7)"><path fill="rgb(0,0,0)" stroke="none" paint-order="stroke fill markers" d=" M 0.20800000000000002 -0.194 L 0.20800000000000002 -0.194 Q 0.122 -0.211 0.095 -0.227 Q 0.085 -0.232 0.076 -0.24 Q 0.033 -0.275 0.033 -0.325 Q 0.033 -0.395 0.095 -0.427 Q 0.134 -0.448 0.193 -0.448 Q 0.249 -0.448 0.28700000000000003 -0.42 Q 0.298 -0.429 0.304 -0.436 Q 0.317 -0.448 0.324 -0.448 Q 0.334 -0.439 0.335 -0.424 L 0.335 -0.323 Q 0.335 -0.302 0.329 -0.3 L 0.328 -0.3 L 0.327 -0.299 L 0.322 -0.299 Q 0.311 -0.299 0.31 -0.308 Q 0.303 -0.40900000000000003 0.227 -0.426 Q 0.211 -0.429 0.193 -0.429 Q 0.099 -0.429 0.083 -0.371 Q 0.081 -0.362 0.081 -0.353 Q 0.081 -0.302 0.158 -0.281 Q 0.17300000000000001 -0.277 0.20400000000000001 -0.271 Q 0.276 -0.257 0.307 -0.232 Q 0.313 -0.228 0.318 -0.223 Q 0.36 -0.181 0.36 -0.128 Q 0.36 -0.043000000000000003 0.29 -0.008 Q 0.252 0.011 0.199 0.011 Q 0.134 0.011 0.089 -0.032 L 0.069 -0.009000000000000001 Q 0.049 0.011 0.044 0.011 Q 0.034 0.002 0.033 -0.013000000000000001 L 0.033 -0.145 Q 0.033 -0.167 0.04 -0.169 L 0.04 -0.169 L 0.041 -0.17 L 0.046 -0.17 Q 0.056 -0.17 0.059000000000000004 -0.159 Q 0.059000000000000004 -0.157 0.06 -0.153 Q 0.08600000000000001 -0.037 0.159 -0.016 Q 0.177 -0.011 0.199 -0.011 Q 0.289 -0.011 0.308 -0.074 Q 0.312 -0.08700000000000001 0.312 -0.10200000000000001 Q 0.312 -0.17500000000000002 0.20800000000000002 -0.194 Z"/></g><g transform="translate(9.801926474131651,10.020696157142856)"><path fill="rgb(0,0,0)" stroke="none" paint-order="stroke fill markers" d=" M 0.40900000000000003 -0.23 L 0.40900000000000003 0.05 Q 0.40900000000000003 0.082 0.389 0.083 Q 0.369 0.083 0.369 0.05 L 0.369 -0.23 L 0.089 -0.23 Q 0.057 -0.23 0.056 -0.25 Q 0.056 -0.27 0.089 -0.27 L 0.369 -0.27 L 0.369 -0.55 Q 0.369 -0.582 0.389 -0.583 Q 0.40900000000000003 -0.583 0.40900000000000003 -0.55 L 0.40900000000000003 -0.27 L 0.6880000000000001 -0.27 Q 0.72 -0.27 0.721 -0.25 Q 0.721 -0.23 0.6880000000000001 -0.23 L 0.40900000000000003 -0.23 Z"/></g><g transform="translate(10.802148696353873,10.020696157142856)"><path fill="rgb(0,0,0)" stroke="none" paint-order="stroke fill markers" d=" M 0.331 0.24 L 0.331 0.24 Q 0.331 0.25 0.321 0.25 Q 0.309 0.25 0.268 0.209 Q 0.20600000000000002 0.147 0.165 0.062 Q 0.099 -0.074 0.099 -0.25 Q 0.099 -0.419 0.162 -0.555 Q 0.214 -0.666 0.294 -0.733 Q 0.315 -0.75 0.321 -0.75 Q 0.331 -0.75 0.331 -0.74 Q 0.331 -0.735 0.318 -0.723 Q 0.157 -0.559 0.157 -0.25 Q 0.157 0.058 0.314 0.218 Q 0.331 0.23500000000000001 0.331 0.24 Z"/></g><g transform="translate(11.191148696353872,10.020696157142856)"><path fill="rgb(0,0,0)" stroke="none" paint-order="stroke fill markers" d=" M 0.294 -0.64 L 0.294 -0.079 Q 0.294 -0.049 0.306 -0.041 Q 0.323 -0.031 0.387 -0.031 L 0.419 -0.031 L 0.419 0 Q 0.384 -0.003 0.257 -0.003 Q 0.13 -0.003 0.095 0 L 0.095 -0.031 L 0.127 -0.031 Q 0.20400000000000001 -0.031 0.215 -0.049 L 0.216 -0.05 Q 0.22 -0.058 0.22 -0.079 L 0.22 -0.597 Q 0.168 -0.5710000000000001 0.089 -0.5710000000000001 L 0.089 -0.602 Q 0.209 -0.602 0.271 -0.666 Q 0.29 -0.666 0.293 -0.659 L 0.293 -0.659 L 0.293 -0.658 Q 0.294 -0.655 0.294 -0.64 Z"/></g><g transform="translate(11.913370918576094,10.020696157142856)"><path fill="rgb(0,0,0)" stroke="none" paint-order="stroke fill markers" d=" M 0.661 -0.23 L 0.116 -0.23 Q 0.084 -0.23 0.083 -0.25 Q 0.083 -0.27 0.116 -0.27 L 0.661 -0.27 Q 0.6930000000000001 -0.27 0.6940000000000001 -0.25 Q 0.6940000000000001 -0.23 0.661 -0.23 Z"/></g><g transform="translate(12.913593140798316,10.020696157142856)"><path fill="rgb(0,0,0)" stroke="none" paint-order="stroke fill markers" d=" M 0.357 -0.292 L 0.116 -0.008 Q 0.099 0.013000000000000001 0.083 0.013000000000000001 Q 0.06 0.013000000000000001 0.054 -0.008 Q 0.053 -0.012 0.053 -0.016 Q 0.053 -0.029 0.07100000000000001 -0.047 L 0.34700000000000003 -0.321 L 0.25 -0.593 Q 0.228 -0.653 0.213 -0.664 L 0.212 -0.664 L 0.21 -0.666 L 0.209 -0.666 Q 0.201 -0.67 0.185 -0.673 Q 0.178 -0.673 0.176 -0.683 Q 0.176 -0.6940000000000001 0.194 -0.6940000000000001 Q 0.29 -0.6940000000000001 0.316 -0.623 L 0.52 -0.054 Q 0.532 -0.02 0.543 -0.008 Q 0.548 -0.001 0.548 0.001 Q 0.548 0.01 0.537 0.011 L 0.515 0.011 Q 0.483 0.011 0.47200000000000003 0.001 Q 0.467 -0.004 0.462 -0.011 Q 0.454 -0.023 0.392 -0.197 Q 0.371 -0.256 0.357 -0.292 Z"/></g><g transform="translate(13.496593140798316,10.020696157142856)"><path fill="rgb(0,0,0)" stroke="none" paint-order="stroke fill markers" d=" M 0.289 -0.25 L 0.289 -0.25 Q 0.289 -0.081 0.226 0.055 Q 0.17400000000000002 0.166 0.094 0.233 Q 0.073 0.25 0.067 0.25 Q 0.057 0.25 0.057 0.24 Q 0.057 0.23500000000000001 0.07 0.223 Q 0.231 0.059000000000000004 0.231 -0.25 Q 0.231 -0.555 0.081 -0.712 L 0.076 -0.717 Q 0.057 -0.735 0.057 -0.74 Q 0.057 -0.75 0.067 -0.75 Q 0.079 -0.75 0.12 -0.709 Q 0.182 -0.647 0.223 -0.562 Q 0.289 -0.426 0.289 -0.25 Z"/></g><g transform="translate(13.885593140798315,10.020696157142856)"><path fill="rgb(0,0,0)" stroke="none" paint-order="stroke fill markers" d=" M 0.227 -0.316 L 0.227 -0.078 Q 0.227 -0.048 0.23900000000000002 -0.04 Q 0.253 -0.031 0.306 -0.031 L 0.33 -0.031 L 0.33 0 Q 0.295 -0.003 0.182 -0.003 Q 0.07 -0.003 0.035 0 L 0.035 -0.031 L 0.059000000000000004 -0.031 Q 0.124 -0.031 0.134 -0.048 Q 0.138 -0.055 0.138 -0.078 L 0.138 -0.605 Q 0.138 -0.635 0.126 -0.643 Q 0.112 -0.652 0.059000000000000004 -0.652 L 0.035 -0.652 L 0.035 -0.683 L 0.388 -0.683 Q 0.504 -0.683 0.5740000000000001 -0.611 Q 0.624 -0.561 0.624 -0.497 Q 0.624 -0.418 0.547 -0.363 Q 0.481 -0.316 0.396 -0.316 L 0.227 -0.316 M 0.224 -0.342 L 0.362 -0.342 Q 0.514 -0.342 0.521 -0.47400000000000003 L 0.521 -0.497 Q 0.521 -0.578 0.485 -0.613 Q 0.445 -0.652 0.362 -0.652 L 0.273 -0.652 Q 0.234 -0.652 0.227 -0.64 L 0.227 -0.639 L 0.227 -0.639 L 0.227 -0.638 Q 0.224 -0.632 0.224 -0.612 L 0.224 -0.342 Z"/></g><g transform="translate(14.566593140798314,10.020696157142856)"><path fill="rgb(0,0,0)" stroke="none" paint-order="stroke fill markers" d=" M 0.34900000000000003 -0.388 L 0.34900000000000003 -0.388 Q 0.428 -0.369 0.47100000000000003 -0.294 Q 0.499 -0.244 0.499 -0.186 Q 0.499 -0.091 0.433 -0.029 Q 0.378 0.022 0.302 0.022 Q 0.194 0.022 0.128 -0.038 L 0.128 -0.038 L 0.11800000000000001 -0.048 Q 0.082 0.01 0.082 0.009000000000000001 Q 0.074 0.022 0.067 0.022 Q 0.057 0.013000000000000001 0.056 -0.002 L 0.056 -0.202 Q 0.056 -0.224 0.063 -0.226 L 0.063 -0.226 L 0.064 -0.227 L 0.069 -0.227 Q 0.08 -0.227 0.081 -0.217 Q 0.084 -0.121 0.139 -0.067 L 0.14300000000000002 -0.063 Q 0.201 -0.009000000000000001 0.301 -0.009000000000000001 Q 0.376 -0.009000000000000001 0.41400000000000003 -0.075 Q 0.435 -0.111 0.435 -0.152 Q 0.435 -0.20600000000000002 0.404 -0.244 Q 0.377 -0.28 0.326 -0.293 L 0.325 -0.294 Q 0.325 -0.293 0.319 -0.295 Q 0.195 -0.325 0.187 -0.328 Q 0.108 -0.355 0.073 -0.431 Q 0.056 -0.46900000000000003 0.056 -0.511 Q 0.056 -0.602 0.125 -0.66 Q 0.179 -0.705 0.251 -0.705 Q 0.336 -0.705 0.398 -0.648 L 0.41100000000000003 -0.635 L 0.446 -0.6920000000000001 Q 0.453 -0.705 0.461 -0.705 Q 0.47100000000000003 -0.6960000000000001 0.47200000000000003 -0.681 L 0.47200000000000003 -0.48 Q 0.47200000000000003 -0.459 0.466 -0.457 L 0.465 -0.457 L 0.464 -0.456 L 0.459 -0.456 Q 0.449 -0.456 0.447 -0.468 Q 0.419 -0.675 0.252 -0.677 Q 0.18 -0.677 0.14200000000000002 -0.619 L 0.14100000000000001 -0.618 Q 0.12 -0.585 0.12 -0.546 Q 0.12 -0.48 0.17300000000000001 -0.441 Q 0.194 -0.425 0.221 -0.419 L 0.34900000000000003 -0.388 Z"/></g><g transform="translate(15.122593140798315,10.020696157142856)"><path fill="rgb(0,0,0)" stroke="none" paint-order="stroke fill markers" d=" M 0.227 -0.316 L 0.227 -0.078 Q 0.227 -0.048 0.23900000000000002 -0.04 Q 0.253 -0.031 0.306 -0.031 L 0.33 -0.031 L 0.33 0 Q 0.295 -0.003 0.182 -0.003 Q 0.07 -0.003 0.035 0 L 0.035 -0.031 L 0.059000000000000004 -0.031 Q 0.124 -0.031 0.134 -0.048 Q 0.138 -0.055 0.138 -0.078 L 0.138 -0.605 Q 0.138 -0.635 0.126 -0.643 Q 0.112 -0.652 0.059000000000000004 -0.652 L 0.035 -0.652 L 0.035 -0.683 L 0.388 -0.683 Q 0.504 -0.683 0.5740000000000001 -0.611 Q 0.624 -0.561 0.624 -0.497 Q 0.624 -0.418 0.547 -0.363 Q 0.481 -0.316 0.396 -0.316 L 0.227 -0.316 M 0.224 -0.342 L 0.362 -0.342 Q 0.514 -0.342 0.521 -0.47400000000000003 L 0.521 -0.497 Q 0.521 -0.578 0.485 -0.613 Q 0.445 -0.652 0.362 -0.652 L 0.273 -0.652 Q 0.234 -0.652 0.227 -0.64 L 0.227 -0.639 L 0.227 -0.639 L 0.227 -0.638 Q 0.224 -0.632 0.224 -0.612 L 0.224 -0.342 Z"/></g></g><path fill="rgb(255,255,255)" stroke="none" paint-order="stroke fill markers" fill-rule="evenodd" d=" M 37.5 109 L 166.5 109 C 168.43299662440776 109 170 110.56700337559222 170 112.5 L 170 140.5 C 170 142.43299662440776 168.43299662440776 144 166.5 144 L 37.5 144 C 35.56700337559222 144 34 142.43299662440776 34 140.5 L 34 112.5 C 34 110.56700337559222 35.56700337559222 109 37.5 109 Z" fill-opacity="1"/><path fill="none" stroke="rgb(179,179,179)" paint-order="fill stroke markers" d=" M 37.5 109 L 166.5 109 C 168.43299662440776 109 170 110.56700337559222 170 112.5 L 170 140.5 C 170 142.43299662440776 168.43299662440776 144 166.5 144 L 37.5 144 C 35.56700337559222 144 34 142.43299662440776 34 140.5 L 34 112.5 C 34 110.56700337559222 35.56700337559222 109 37.5 109 Z" stroke-opacity="1" stroke-linecap="round" stroke-linejoin="round" stroke-miterlimit="10"/><text fill="rgb(0,0,0)" stroke="none" font-family="geogebra-sans-serif, sans-serif" font-size="24px" font-style="normal" font-weight="normal" text-decoration="normal" x="44" y="136" text-anchor="start" dominant-baseline="alphabetic" fill-opacity="1">Show SVG</text><path fill="rgb(255,255,255)" stroke="none" paint-order="stroke fill markers" fill-rule="evenodd" d=" M 204.5 106 L 380.5 106 C 382.4329966244078 106 384 107.56700337559222 384 109.5 L 384 137.5 C 384 139.43299662440776 382.4329966244078 141 380.5 141 L 204.5 141 C 202.56700337559224 141 201 139.43299662440776 201 137.5 L 201 109.5 C 201 107.56700337559222 202.56700337559224 106 204.5 106 Z" fill-opacity="1"/><path fill="none" stroke="rgb(179,179,179)" paint-order="fill stroke markers" d=" M 204.5 106 L 380.5 106 C 382.4329966244078 106 384 107.56700337559222 384 109.5 L 384 137.5 C 384 139.43299662440776 382.4329966244078 141 380.5 141 L 204.5 141 C 202.56700337559224 141 201 139.43299662440776 201 137.5 L 201 109.5 C 201 107.56700337559222 202.56700337559224 106 204.5 106 Z" stroke-opacity="1" stroke-linecap="round" stroke-linejoin="round" stroke-miterlimit="10"/><text fill="rgb(0,0,0)" stroke="none" font-family="geogebra-sans-serif, sans-serif" font-size="24px" font-style="normal" font-weight="normal" text-decoration="normal" x="211" y="133" text-anchor="start" dominant-baseline="alphabetic" fill-opacity="1">Download SVG</text><path fill="rgb(255,255,255)" stroke="none" paint-order="stroke fill markers" fill-rule="evenodd" d=" M 212 30 L 722 30 C 724.2091389993232 30 726 31.790861000676827 726 34 L 726 75 C 726 77.20913899932317 724.2091389993232 79 722 79 L 212 79 C 209.7908610006768 79 208 77.20913899932317 208 75 L 208 34 C 208 31.790861000676827 209.7908610006768 30 212 30 Z" fill-opacity="1"/><path fill="none" stroke="rgb(180,179,186)" paint-order="fill stroke markers" d=" M 212 30 L 722 30 C 724.2091389993232 30 726 31.790861000676827 726 34 L 726 75 C 726 77.20913899932317 724.2091389993232 79 722 79 L 212 79 C 209.7908610006768 79 208 77.20913899932317 208 75 L 208 34 C 208 31.790861000676827 209.7908610006768 30 212 30 Z" stroke-opacity="1" stroke-linecap="round" stroke-linejoin="round" stroke-miterlimit="10"/><text fill="rgb(0,0,0)" stroke="none" font-family="geogebra-sans-serif, sans-serif" font-size="32px" font-style="normal" font-weight="normal" text-decoration="normal" x="210" y="66" text-anchor="start" dominant-baseline="alphabetic" fill-opacity="1">r = 1 - \frac{\text{PSP}^{\text{bias}}}{</text><text fill="rgb(0,0,0)" stroke="none" font-family="geogebra-sans-serif, sans-serif" font-size="32px" font-style="normal" font-weight="normal" text-decoration="normal" x="30" y="66" text-anchor="start" dominant-baseline="alphabetic" fill-opacity="1">Enter LaTeX</text></g></g></g></g></svg>