<svg version="1.1" xmlns="http://www.w3.org/2000/svg" xmlns:xlink="http://www.w3.org/1999/xlink" width="1167" height="151"><defs><clipPath id="eEuTgNEMCgDk"><path fill="none" stroke="none" d=" M 0 0 L 1167 0 L 1167 151 L 0 151 L 0 0 Z"/></clipPath></defs><g transform="scale(1,1)" clip-path="url(#eEuTgNEMCgDk)"><g transform="translate(-70,-258)"><path fill="rgb(101,87,210)" stroke="none" paint-order="stroke fill markers" fill-rule="evenodd" d=" M 450 115 L 472 115 C 473.1045694996616 115 474 115.8954305003384 474 117 L 474 139 C 474 140.10456949966158 473.1045694996616 141 472 141 L 450 141 C 448.8954305003384 141 448 140.10456949966158 448 139 L 448 117 C 448 115.8954305003384 448.8954305003384 115 450 115 Z" fill-opacity="1"/><g transform="translate(448,115)"><path fill="none" stroke="rgb(255,255,255)" paint-order="fill stroke markers" d=" M 4.44 13.76 L 9.75 19.07 L 21.99 6.83" stroke-opacity="1" stroke-linecap="square" stroke-miterlimit="10" stroke-width="2.6"/><g transform="translate(-448,-115)"><text fill="rgb(0,0,0)" stroke="none" font-family="geogebra-sans-serif, sans-serif" font-size="32px" font-style="normal" font-weight="normal" text-decoration="normal" x="483" y="140" text-anchor="start" dominant-baseline="alphabetic" fill-opacity="1">Serif</text><g transform="scale(35,35)"><g transform="translate(2.2857142857142856,9.083650857142857)"><path fill="rgb(0,0,0)" stroke="none" paint-order="stroke fill markers" d=" M 0.35000000000000003 -0.056 L 0.35000000000000003 -0.056 Q 0.298 0.011 0.231 0.011 Q 0.15 0.011 0.121 -0.048 Q 0.108 -0.074 0.108 -0.109 Q 0.108 -0.163 0.161 -0.305 Q 0.163 -0.312 0.166 -0.319 Q 0.183 -0.362 0.183 -0.387 Q 0.183 -0.42 0.158 -0.42 Q 0.10200000000000001 -0.42 0.067 -0.325 Q 0.066 -0.325 0.066 -0.324 L 0.066 -0.323 Q 0.061 -0.31 0.057 -0.296 Q 0.046 -0.279 0.041 -0.278 Q 0.029 -0.278 0.029 -0.28800000000000003 Q 0.029 -0.306 0.05 -0.35100000000000003 Q 0.094 -0.442 0.161 -0.442 Q 0.214 -0.442 0.23500000000000001 -0.397 Q 0.243 -0.38 0.243 -0.36 Q 0.243 -0.34 0.226 -0.297 Q 0.17200000000000001 -0.154 0.17200000000000001 -0.093 Q 0.17200000000000001 -0.011 0.234 -0.011 Q 0.297 -0.011 0.34 -0.08 Q 0.34600000000000003 -0.089 0.34800000000000003 -0.095 Q 0.37 -0.194 0.423 -0.396 Q 0.431 -0.431 0.462 -0.431 Q 0.487 -0.426 0.491 -0.404 Q 0.491 -0.406 0.47600000000000003 -0.337 Q 0.462 -0.28600000000000003 0.459 -0.269 L 0.431 -0.161 Q 0.41100000000000003 -0.074 0.41100000000000003 -0.057 Q 0.41100000000000003 -0.011 0.442 -0.011 Q 0.484 -0.011 0.511 -0.111 Q 0.514 -0.121 0.517 -0.135 Q 0.525 -0.152 0.531 -0.153 Q 0.543 -0.153 0.543 -0.14300000000000002 Q 0.543 -0.128 0.525 -0.073 Q 0.519 -0.056 0.513 -0.044 Q 0.486 0.011 0.439 0.011 Q 0.382 0.011 0.358 -0.037 Q 0.353 -0.046 0.35000000000000003 -0.056 Z"/></g><g transform="translate(3.1354920634920633,9.083650857142857)"><path fill="rgb(0,0,0)" stroke="none" paint-order="stroke fill markers" d=" M 0.687 -0.327 L 0.09 -0.327 Q 0.058 -0.327 0.056 -0.34700000000000003 Q 0.056 -0.367 0.089 -0.367 L 0.6880000000000001 -0.367 Q 0.72 -0.367 0.721 -0.34700000000000003 Q 0.721 -0.327 0.687 -0.327 M 0.6880000000000001 -0.133 L 0.089 -0.133 Q 0.057 -0.133 0.056 -0.153 Q 0.056 -0.17300000000000001 0.09 -0.17300000000000001 L 0.687 -0.17300000000000001 Q 0.719 -0.17300000000000001 0.721 -0.153 Q 0.721 -0.133 0.6880000000000001 -0.133 Z"/></g><g transform="translate(14.500973976551876,8.407142857142857)"><path fill="rgb(0,0,0)" stroke="none" paint-order="stroke fill markers" d=" M 0.303 -0.316 L 0.303 -0.316 L 0.241 -0.066 L 0.23800000000000002 -0.049 Q 0.23800000000000002 -0.032 0.28400000000000003 -0.031 L 0.28400000000000003 -0.031 L 0.28400000000000003 -0.031 L 0.303 -0.031 Q 0.329 -0.031 0.331 -0.02 Q 0.331 0 0.311 0 L 0.247 -0.002 L 0.246 -0.002 L 0.184 -0.003 L 0.182 -0.003 L 0.056 0 L 0.055 0 Q 0.04 0 0.04 -0.012 Q 0.04 -0.029 0.056 -0.031 L 0.068 -0.031 Q 0.133 -0.031 0.146 -0.045 Q 0.152 -0.052000000000000005 0.158 -0.073 Q 0.158 -0.074 0.159 -0.078 L 0.293 -0.615 Q 0.297 -0.631 0.297 -0.634 Q 0.297 -0.646 0.281 -0.649 L 0.28 -0.649 L 0.28 -0.649 Q 0.278 -0.65 0.275 -0.65 Q 0.251 -0.652 0.232 -0.652 Q 0.20600000000000002 -0.652 0.20400000000000001 -0.66 Q 0.203 -0.662 0.203 -0.664 Q 0.203 -0.681 0.22 -0.683 L 0.22 -0.683 L 0.233 -0.683 L 0.557 -0.683 Q 0.678 -0.683 0.73 -0.609 Q 0.754 -0.5740000000000001 0.754 -0.532 Q 0.754 -0.451 0.671 -0.385 Q 0.583 -0.316 0.47300000000000003 -0.316 L 0.303 -0.316 M 0.375 -0.614 L 0.307 -0.342 L 0.448 -0.342 Q 0.543 -0.342 0.602 -0.395 Q 0.643 -0.433 0.658 -0.522 L 0.658 -0.523 Q 0.661 -0.542 0.661 -0.556 Q 0.661 -0.652 0.525 -0.652 L 0.429 -0.652 Q 0.393 -0.652 0.385 -0.642 L 0.385 -0.642 L 0.385 -0.641 L 0.384 -0.641 L 0.384 -0.64 Q 0.38 -0.634 0.375 -0.614 Z"/></g><g transform="translate(15.142973976551875,8.557142857142857) scale(0.7,0.7)"><path fill="rgb(0,0,0)" stroke="none" paint-order="stroke fill markers" d=" M 0.46900000000000003 -0.273 Q 0.46900000000000003 -0.167 0.388 -0.08 Q 0.311 0.004 0.215 0.01 Q 0.20800000000000002 0.011 0.201 0.011 Q 0.114 0.011 0.069 -0.058 Q 0.041 -0.101 0.041 -0.158 Q 0.041 -0.261 0.121 -0.34900000000000003 Q 0.197 -0.433 0.293 -0.441 Q 0.301 -0.442 0.309 -0.442 Q 0.395 -0.442 0.44 -0.375 Q 0.46900000000000003 -0.332 0.46900000000000003 -0.273 M 0.202 -0.011 L 0.202 -0.011 Q 0.261 -0.011 0.313 -0.069 Q 0.327 -0.085 0.338 -0.10300000000000001 Q 0.38 -0.17500000000000002 0.394 -0.28200000000000003 Q 0.395 -0.29 0.395 -0.298 L 0.395 -0.299 L 0.396 -0.3 L 0.396 -0.312 Q 0.396 -0.386 0.34700000000000003 -0.41100000000000003 Q 0.33 -0.42 0.308 -0.42 Q 0.247 -0.42 0.193 -0.356 Q 0.186 -0.34700000000000003 0.18 -0.338 Q 0.176 -0.333 0.17300000000000001 -0.328 Q 0.137 -0.27 0.12 -0.166 Q 0.115 -0.138 0.115 -0.12 Q 0.115 -0.037 0.17300000000000001 -0.016 Q 0.187 -0.011 0.202 -0.011 Z"/></g><g transform="translate(15.482473976551876,8.407142857142857)"><path fill="rgb(0,0,0)" stroke="none" paint-order="stroke fill markers" d=" M 0.255 0.25 L 0.11800000000000001 0.25 L 0.11800000000000001 -0.75 L 0.255 -0.75 L 0.255 -0.71 L 0.158 -0.71 L 0.158 0.21 L 0.255 0.21 L 0.255 0.25 Z"/></g><g transform="translate(15.760473976551877,8.407142857142857)"><path fill="rgb(0,0,0)" stroke="none" paint-order="stroke fill markers" d=" M 0.47700000000000004 -0.23600000000000002 L 0.47700000000000004 -0.23600000000000002 L 0.47700000000000004 -0.17400000000000002 Q 0.542 -0.255 0.5750000000000001 -0.372 Q 0.585 -0.392 0.59 -0.393 Q 0.602 -0.393 0.602 -0.383 Q 0.602 -0.366 0.579 -0.307 Q 0.545 -0.221 0.487 -0.148 Q 0.47700000000000004 -0.128 0.47700000000000004 -0.113 Q 0.47700000000000004 -0.011 0.508 -0.011 Q 0.539 -0.011 0.558 -0.046 Q 0.561 -0.052000000000000005 0.5640000000000001 -0.06 Q 0.5680000000000001 -0.07 0.577 -0.07 Q 0.589 -0.07 0.589 -0.06 Q 0.589 -0.041 0.5640000000000001 -0.015 Q 0.538 0.011 0.505 0.011 Q 0.442 0.011 0.418 -0.058 Q 0.41600000000000004 -0.065 0.41400000000000003 -0.073 Q 0.309 0.011 0.203 0.011 Q 0.109 0.011 0.065 -0.064 Q 0.041 -0.105 0.041 -0.158 Q 0.041 -0.26 0.11900000000000001 -0.34700000000000003 Q 0.196 -0.433 0.293 -0.441 Q 0.302 -0.442 0.31 -0.442 Q 0.394 -0.442 0.44 -0.376 Q 0.44 -0.375 0.441 -0.375 Q 0.47700000000000004 -0.322 0.47700000000000004 -0.23600000000000002 M 0.41000000000000003 -0.099 L 0.41000000000000003 -0.099 Q 0.40800000000000003 -0.116 0.40800000000000003 -0.211 Q 0.40800000000000003 -0.334 0.381 -0.379 Q 0.369 -0.399 0.352 -0.40900000000000003 L 0.35100000000000003 -0.41000000000000003 L 0.35100000000000003 -0.41000000000000003 L 0.35000000000000003 -0.41000000000000003 Q 0.332 -0.42 0.309 -0.42 Q 0.23800000000000002 -0.42 0.181 -0.34 L 0.17300000000000001 -0.328 Q 0.137 -0.27 0.12 -0.166 Q 0.115 -0.138 0.115 -0.12 Q 0.115 -0.036000000000000004 0.17400000000000002 -0.016 Q 0.188 -0.011 0.20500000000000002 -0.011 Q 0.309 -0.011 0.41000000000000003 -0.099 Z"/></g><g transform="translate(16.404473976551877,8.407142857142857)"><path fill="rgb(0,0,0)" stroke="none" paint-order="stroke fill markers" d=" M 0.331 0.24 L 0.331 0.24 Q 0.331 0.25 0.321 0.25 Q 0.309 0.25 0.268 0.209 Q 0.20600000000000002 0.147 0.165 0.062 Q 0.099 -0.074 0.099 -0.25 Q 0.099 -0.419 0.162 -0.555 Q 0.214 -0.666 0.294 -0.733 Q 0.315 -0.75 0.321 -0.75 Q 0.331 -0.75 0.331 -0.74 Q 0.331 -0.735 0.318 -0.723 Q 0.157 -0.559 0.157 -0.25 Q 0.157 0.058 0.314 0.218 Q 0.331 0.23500000000000001 0.331 0.24 Z"/></g><g transform="translate(16.793473976551876,8.407142857142857)"><path fill="rgb(0,0,0)" stroke="none" paint-order="stroke fill markers" d=" M 0.294 -0.64 L 0.294 -0.079 Q 0.294 -0.049 0.306 -0.041 Q 0.323 -0.031 0.387 -0.031 L 0.419 -0.031 L 0.419 0 Q 0.384 -0.003 0.257 -0.003 Q 0.13 -0.003 0.095 0 L 0.095 -0.031 L 0.127 -0.031 Q 0.20400000000000001 -0.031 0.215 -0.049 L 0.216 -0.05 Q 0.22 -0.058 0.22 -0.079 L 0.22 -0.597 Q 0.168 -0.5710000000000001 0.089 -0.5710000000000001 L 0.089 -0.602 Q 0.209 -0.602 0.271 -0.666 Q 0.29 -0.666 0.293 -0.659 L 0.293 -0.659 L 0.293 -0.658 Q 0.294 -0.655 0.294 -0.64 Z"/></g><g transform="translate(17.515696198774098,8.407142857142857)"><path fill="rgb(0,0,0)" stroke="none" paint-order="stroke fill markers" d=" M 0.661 -0.23 L 0.116 -0.23 Q 0.084 -0.23 0.083 -0.25 Q 0.083 -0.27 0.116 -0.27 L 0.661 -0.27 Q 0.6930000000000001 -0.27 0.6940000000000001 -0.25 Q 0.6940000000000001 -0.23 0.661 -0.23 Z"/></g><g transform="translate(18.515918420996318,8.407142857142857)"><path fill="rgb(0,0,0)" stroke="none" paint-order="stroke fill markers" d=" M 0.265 -0.373 L 0.265 -0.373 L 0.209 -0.152 Q 0.192 -0.088 0.182 -0.054 Q 0.166 -0.005 0.152 0.005 L 0.152 0.006 Q 0.14300000000000002 0.011 0.132 0.011 Q 0.109 0.011 0.10400000000000001 -0.009000000000000001 Q 0.10300000000000001 -0.012 0.10300000000000001 -0.016 Q 0.10300000000000001 -0.025 0.111 -0.04 Q 0.20500000000000002 -0.243 0.23900000000000002 -0.373 L 0.182 -0.373 Q 0.10400000000000001 -0.373 0.055 -0.296 Q 0.046 -0.28400000000000003 0.039 -0.28400000000000003 Q 0.027 -0.28400000000000003 0.027 -0.294 Q 0.027 -0.305 0.063 -0.354 Q 0.07 -0.362 0.076 -0.37 Q 0.079 -0.374 0.083 -0.378 Q 0.085 -0.381 0.088 -0.384 Q 0.132 -0.431 0.192 -0.431 L 0.527 -0.431 Q 0.561 -0.431 0.5660000000000001 -0.41600000000000004 L 0.5660000000000001 -0.41500000000000004 Q 0.5670000000000001 -0.41200000000000003 0.5670000000000001 -0.40700000000000003 Q 0.5670000000000001 -0.373 0.518 -0.373 L 0.404 -0.373 Q 0.386 -0.28800000000000003 0.386 -0.214 Q 0.386 -0.121 0.41500000000000004 -0.049 Q 0.421 -0.035 0.421 -0.027 Q 0.421 -0.004 0.396 0.007 Q 0.388 0.011 0.38 0.011 Q 0.36 0.011 0.35000000000000003 -0.017 Q 0.34700000000000003 -0.026000000000000002 0.34400000000000003 -0.039 Q 0.336 -0.073 0.336 -0.115 Q 0.336 -0.181 0.363 -0.306 L 0.378 -0.373 L 0.265 -0.373 Z"/></g><g transform="translate(19.12191842099632,8.407142857142857)"><path fill="rgb(0,0,0)" stroke="none" paint-order="stroke fill markers" d=" M 0.289 -0.25 L 0.289 -0.25 Q 0.289 -0.081 0.226 0.055 Q 0.17400000000000002 0.166 0.094 0.233 Q 0.073 0.25 0.067 0.25 Q 0.057 0.25 0.057 0.24 Q 0.057 0.23500000000000001 0.07 0.223 Q 0.231 0.059000000000000004 0.231 -0.25 Q 0.231 -0.555 0.081 -0.712 L 0.076 -0.717 Q 0.057 -0.735 0.057 -0.74 Q 0.057 -0.75 0.067 -0.75 Q 0.079 -0.75 0.12 -0.709 Q 0.182 -0.647 0.223 -0.562 Q 0.289 -0.426 0.289 -0.25 Z"/></g><g transform="translate(19.677585087662987,8.407142857142857)"><path fill="rgb(0,0,0)" stroke="none" paint-order="stroke fill markers" d=" M 0.661 -0.23 L 0.116 -0.23 Q 0.084 -0.23 0.083 -0.25 Q 0.083 -0.27 0.116 -0.27 L 0.661 -0.27 Q 0.6930000000000001 -0.27 0.6940000000000001 -0.25 Q 0.6940000000000001 -0.23 0.661 -0.23 Z"/></g><g transform="translate(20.677807309885207,8.407142857142857)"><path fill="rgb(0,0,0)" stroke="none" paint-order="stroke fill markers" d=" M 0.331 0.24 L 0.331 0.24 Q 0.331 0.25 0.321 0.25 Q 0.309 0.25 0.268 0.209 Q 0.20600000000000002 0.147 0.165 0.062 Q 0.099 -0.074 0.099 -0.25 Q 0.099 -0.419 0.162 -0.555 Q 0.214 -0.666 0.294 -0.733 Q 0.315 -0.75 0.321 -0.75 Q 0.331 -0.75 0.331 -0.74 Q 0.331 -0.735 0.318 -0.723 Q 0.157 -0.559 0.157 -0.25 Q 0.157 0.058 0.314 0.218 Q 0.331 0.23500000000000001 0.331 0.24 Z"/></g><g transform="translate(21.066807309885206,8.407142857142857)"><path fill="rgb(0,0,0)" stroke="none" paint-order="stroke fill markers" d=" M 0.294 -0.64 L 0.294 -0.079 Q 0.294 -0.049 0.306 -0.041 Q 0.323 -0.031 0.387 -0.031 L 0.419 -0.031 L 0.419 0 Q 0.384 -0.003 0.257 -0.003 Q 0.13 -0.003 0.095 0 L 0.095 -0.031 L 0.127 -0.031 Q 0.20400000000000001 -0.031 0.215 -0.049 L 0.216 -0.05 Q 0.22 -0.058 0.22 -0.079 L 0.22 -0.597 Q 0.168 -0.5710000000000001 0.089 -0.5710000000000001 L 0.089 -0.602 Q 0.209 -0.602 0.271 -0.666 Q 0.29 -0.666 0.293 -0.659 L 0.293 -0.659 L 0.293 -0.658 Q 0.294 -0.655 0.294 -0.64 Z"/></g><g transform="translate(21.789029532107428,8.407142857142857)"><path fill="rgb(0,0,0)" stroke="none" paint-order="stroke fill markers" d=" M 0.661 -0.23 L 0.116 -0.23 Q 0.084 -0.23 0.083 -0.25 Q 0.083 -0.27 0.116 -0.27 L 0.661 -0.27 Q 0.6930000000000001 -0.27 0.6940000000000001 -0.25 Q 0.6940000000000001 -0.23 0.661 -0.23 Z"/></g><g transform="translate(22.789251754329648,8.407142857142857)"><path fill="rgb(0,0,0)" stroke="none" paint-order="stroke fill markers" d=" M 0.028 0.169 L 0.18 -0.437 Q 0.209 -0.551 0.292 -0.631 Q 0.37 -0.705 0.456 -0.705 Q 0.539 -0.705 0.5750000000000001 -0.639 Q 0.59 -0.611 0.59 -0.577 Q 0.59 -0.502 0.528 -0.439 Q 0.507 -0.418 0.482 -0.403 Q 0.549 -0.357 0.549 -0.264 Q 0.549 -0.161 0.46900000000000003 -0.076 Q 0.392 0.005 0.296 0.012 L 0.28300000000000003 0.012 Q 0.186 0.012 0.14100000000000001 -0.063 Q 0.129 -0.083 0.123 -0.105 L 0.048 0.188 L 0.047 0.19 Q 0.043000000000000003 0.194 0.037 0.194 Q 0.025 0.194 0.025 0.184 Q 0.025 0.181 0.028 0.169 M 0.328 -0.401 Q 0.34500000000000003 -0.395 0.371 -0.395 Q 0.401 -0.395 0.419 -0.403 Q 0.406 -0.40900000000000003 0.379 -0.40900000000000003 Q 0.34400000000000003 -0.40900000000000003 0.328 -0.401 M 0.45 -0.421 Q 0.511 -0.467 0.525 -0.577 L 0.525 -0.578 L 0.525 -0.58 Q 0.527 -0.594 0.527 -0.602 Q 0.527 -0.673 0.46900000000000003 -0.682 Q 0.462 -0.683 0.455 -0.683 Q 0.372 -0.683 0.299 -0.606 Q 0.23 -0.534 0.2 -0.41600000000000004 L 0.154 -0.231 Q 0.14100000000000001 -0.179 0.14100000000000001 -0.156 Q 0.14100000000000001 -0.074 0.2 -0.034 Q 0.234 -0.01 0.281 -0.01 Q 0.359 -0.01 0.41500000000000004 -0.094 Q 0.422 -0.10300000000000001 0.427 -0.113 Q 0.462 -0.179 0.47400000000000003 -0.274 Q 0.47600000000000003 -0.291 0.47600000000000003 -0.302 Q 0.47600000000000003 -0.355 0.446 -0.386 Q 0.41400000000000003 -0.373 0.371 -0.373 Q 0.303 -0.373 0.303 -0.399 Q 0.303 -0.431 0.381 -0.431 Q 0.422 -0.431 0.45 -0.421 Z"/></g><g transform="translate(23.408251754329648,8.407142857142857)"><path fill="rgb(0,0,0)" stroke="none" paint-order="stroke fill markers" d=" M 0.289 -0.25 L 0.289 -0.25 Q 0.289 -0.081 0.226 0.055 Q 0.17400000000000002 0.166 0.094 0.233 Q 0.073 0.25 0.067 0.25 Q 0.057 0.25 0.057 0.24 Q 0.057 0.23500000000000001 0.07 0.223 Q 0.231 0.059000000000000004 0.231 -0.25 Q 0.231 -0.555 0.081 -0.712 L 0.076 -0.717 Q 0.057 -0.735 0.057 -0.74 Q 0.057 -0.75 0.067 -0.75 Q 0.079 -0.75 0.12 -0.709 Q 0.182 -0.647 0.223 -0.562 Q 0.289 -0.426 0.289 -0.25 Z"/></g><g transform="translate(23.797251754329647,8.407142857142857)"><path fill="rgb(0,0,0)" stroke="none" paint-order="stroke fill markers" d=" M 0.265 -0.373 L 0.265 -0.373 L 0.209 -0.152 Q 0.192 -0.088 0.182 -0.054 Q 0.166 -0.005 0.152 0.005 L 0.152 0.006 Q 0.14300000000000002 0.011 0.132 0.011 Q 0.109 0.011 0.10400000000000001 -0.009000000000000001 Q 0.10300000000000001 -0.012 0.10300000000000001 -0.016 Q 0.10300000000000001 -0.025 0.111 -0.04 Q 0.20500000000000002 -0.243 0.23900000000000002 -0.373 L 0.182 -0.373 Q 0.10400000000000001 -0.373 0.055 -0.296 Q 0.046 -0.28400000000000003 0.039 -0.28400000000000003 Q 0.027 -0.28400000000000003 0.027 -0.294 Q 0.027 -0.305 0.063 -0.354 Q 0.07 -0.362 0.076 -0.37 Q 0.079 -0.374 0.083 -0.378 Q 0.085 -0.381 0.088 -0.384 Q 0.132 -0.431 0.192 -0.431 L 0.527 -0.431 Q 0.561 -0.431 0.5660000000000001 -0.41600000000000004 L 0.5660000000000001 -0.41500000000000004 Q 0.5670000000000001 -0.41200000000000003 0.5670000000000001 -0.40700000000000003 Q 0.5670000000000001 -0.373 0.518 -0.373 L 0.404 -0.373 Q 0.386 -0.28800000000000003 0.386 -0.214 Q 0.386 -0.121 0.41500000000000004 -0.049 Q 0.421 -0.035 0.421 -0.027 Q 0.421 -0.004 0.396 0.007 Q 0.388 0.011 0.38 0.011 Q 0.36 0.011 0.35000000000000003 -0.017 Q 0.34700000000000003 -0.026000000000000002 0.34400000000000003 -0.039 Q 0.336 -0.073 0.336 -0.115 Q 0.336 -0.181 0.363 -0.306 L 0.378 -0.373 L 0.265 -0.373 Z"/></g><g transform="translate(24.403251754329656,8.407142857142857)"><path fill="rgb(0,0,0)" stroke="none" paint-order="stroke fill markers" d=" M 0.159 -0.75 L 0.159 0.25 L 0.022 0.25 L 0.022 0.21 L 0.11900000000000001 0.21 L 0.11900000000000001 -0.71 L 0.022 -0.71 L 0.022 -0.75 L 0.159 -0.75 Z"/></g><rect fill="rgb(0,0,0)" stroke="none" x="4.225427464466414" y="8.813651357142856" width="30.731370801948707" height="0.039999"/><g transform="translate(4.225427464466414,10.400155357142856)"><path fill="rgb(0,0,0)" stroke="none" paint-order="stroke fill markers" d=" M 0.357 -0.292 L 0.116 -0.008 Q 0.099 0.013000000000000001 0.083 0.013000000000000001 Q 0.06 0.013000000000000001 0.054 -0.008 Q 0.053 -0.012 0.053 -0.016 Q 0.053 -0.029 0.07100000000000001 -0.047 L 0.34700000000000003 -0.321 L 0.25 -0.593 Q 0.228 -0.653 0.213 -0.664 L 0.212 -0.664 L 0.21 -0.666 L 0.209 -0.666 Q 0.201 -0.67 0.185 -0.673 Q 0.178 -0.673 0.176 -0.683 Q 0.176 -0.6940000000000001 0.194 -0.6940000000000001 Q 0.29 -0.6940000000000001 0.316 -0.623 L 0.52 -0.054 Q 0.532 -0.02 0.543 -0.008 Q 0.548 -0.001 0.548 0.001 Q 0.548 0.01 0.537 0.011 L 0.515 0.011 Q 0.483 0.011 0.47200000000000003 0.001 Q 0.467 -0.004 0.462 -0.011 Q 0.454 -0.023 0.392 -0.197 Q 0.371 -0.256 0.357 -0.292 Z"/></g><g transform="translate(4.808427464466414,10.400155357142856)"><path fill="rgb(0,0,0)" stroke="none" paint-order="stroke fill markers" d=" M 0.028 0.169 L 0.18 -0.437 Q 0.209 -0.551 0.292 -0.631 Q 0.37 -0.705 0.456 -0.705 Q 0.539 -0.705 0.5750000000000001 -0.639 Q 0.59 -0.611 0.59 -0.577 Q 0.59 -0.502 0.528 -0.439 Q 0.507 -0.418 0.482 -0.403 Q 0.549 -0.357 0.549 -0.264 Q 0.549 -0.161 0.46900000000000003 -0.076 Q 0.392 0.005 0.296 0.012 L 0.28300000000000003 0.012 Q 0.186 0.012 0.14100000000000001 -0.063 Q 0.129 -0.083 0.123 -0.105 L 0.048 0.188 L 0.047 0.19 Q 0.043000000000000003 0.194 0.037 0.194 Q 0.025 0.194 0.025 0.184 Q 0.025 0.181 0.028 0.169 M 0.328 -0.401 Q 0.34500000000000003 -0.395 0.371 -0.395 Q 0.401 -0.395 0.419 -0.403 Q 0.406 -0.40900000000000003 0.379 -0.40900000000000003 Q 0.34400000000000003 -0.40900000000000003 0.328 -0.401 M 0.45 -0.421 Q 0.511 -0.467 0.525 -0.577 L 0.525 -0.578 L 0.525 -0.58 Q 0.527 -0.594 0.527 -0.602 Q 0.527 -0.673 0.46900000000000003 -0.682 Q 0.462 -0.683 0.455 -0.683 Q 0.372 -0.683 0.299 -0.606 Q 0.23 -0.534 0.2 -0.41600000000000004 L 0.154 -0.231 Q 0.14100000000000001 -0.179 0.14100000000000001 -0.156 Q 0.14100000000000001 -0.074 0.2 -0.034 Q 0.234 -0.01 0.281 -0.01 Q 0.359 -0.01 0.41500000000000004 -0.094 Q 0.422 -0.10300000000000001 0.427 -0.113 Q 0.462 -0.179 0.47400000000000003 -0.274 Q 0.47600000000000003 -0.291 0.47600000000000003 -0.302 Q 0.47600000000000003 -0.355 0.446 -0.386 Q 0.41400000000000003 -0.373 0.371 -0.373 Q 0.303 -0.373 0.303 -0.399 Q 0.303 -0.431 0.381 -0.431 Q 0.422 -0.431 0.45 -0.421 Z"/></g><g transform="translate(5.5940941311330805,10.400155357142856)"><path fill="rgb(0,0,0)" stroke="none" paint-order="stroke fill markers" d=" M 0.265 -0.373 L 0.265 -0.373 L 0.209 -0.152 Q 0.192 -0.088 0.182 -0.054 Q 0.166 -0.005 0.152 0.005 L 0.152 0.006 Q 0.14300000000000002 0.011 0.132 0.011 Q 0.109 0.011 0.10400000000000001 -0.009000000000000001 Q 0.10300000000000001 -0.012 0.10300000000000001 -0.016 Q 0.10300000000000001 -0.025 0.111 -0.04 Q 0.20500000000000002 -0.243 0.23900000000000002 -0.373 L 0.182 -0.373 Q 0.10400000000000001 -0.373 0.055 -0.296 Q 0.046 -0.28400000000000003 0.039 -0.28400000000000003 Q 0.027 -0.28400000000000003 0.027 -0.294 Q 0.027 -0.305 0.063 -0.354 Q 0.07 -0.362 0.076 -0.37 Q 0.079 -0.374 0.083 -0.378 Q 0.085 -0.381 0.088 -0.384 Q 0.132 -0.431 0.192 -0.431 L 0.527 -0.431 Q 0.561 -0.431 0.5660000000000001 -0.41600000000000004 L 0.5660000000000001 -0.41500000000000004 Q 0.5670000000000001 -0.41200000000000003 0.5670000000000001 -0.40700000000000003 Q 0.5670000000000001 -0.373 0.518 -0.373 L 0.404 -0.373 Q 0.386 -0.28800000000000003 0.386 -0.214 Q 0.386 -0.121 0.41500000000000004 -0.049 Q 0.421 -0.035 0.421 -0.027 Q 0.421 -0.004 0.396 0.007 Q 0.388 0.011 0.38 0.011 Q 0.36 0.011 0.35000000000000003 -0.017 Q 0.34700000000000003 -0.026000000000000002 0.34400000000000003 -0.039 Q 0.336 -0.073 0.336 -0.115 Q 0.336 -0.181 0.363 -0.306 L 0.378 -0.373 L 0.265 -0.373 Z"/></g><g transform="translate(6.422316353355303,10.400155357142856)"><path fill="rgb(0,0,0)" stroke="none" paint-order="stroke fill markers" d=" M 0.661 -0.23 L 0.116 -0.23 Q 0.084 -0.23 0.083 -0.25 Q 0.083 -0.27 0.116 -0.27 L 0.661 -0.27 Q 0.6930000000000001 -0.27 0.6940000000000001 -0.25 Q 0.6940000000000001 -0.23 0.661 -0.23 Z"/></g><g transform="translate(7.4225385755775255,10.400155357142856)"><path fill="rgb(0,0,0)" stroke="none" paint-order="stroke fill markers" d=" M 0.303 -0.316 L 0.303 -0.316 L 0.241 -0.066 L 0.23800000000000002 -0.049 Q 0.23800000000000002 -0.032 0.28400000000000003 -0.031 L 0.28400000000000003 -0.031 L 0.28400000000000003 -0.031 L 0.303 -0.031 Q 0.329 -0.031 0.331 -0.02 Q 0.331 0 0.311 0 L 0.247 -0.002 L 0.246 -0.002 L 0.184 -0.003 L 0.182 -0.003 L 0.056 0 L 0.055 0 Q 0.04 0 0.04 -0.012 Q 0.04 -0.029 0.056 -0.031 L 0.068 -0.031 Q 0.133 -0.031 0.146 -0.045 Q 0.152 -0.052000000000000005 0.158 -0.073 Q 0.158 -0.074 0.159 -0.078 L 0.293 -0.615 Q 0.297 -0.631 0.297 -0.634 Q 0.297 -0.646 0.281 -0.649 L 0.28 -0.649 L 0.28 -0.649 Q 0.278 -0.65 0.275 -0.65 Q 0.251 -0.652 0.232 -0.652 Q 0.20600000000000002 -0.652 0.20400000000000001 -0.66 Q 0.203 -0.662 0.203 -0.664 Q 0.203 -0.681 0.22 -0.683 L 0.22 -0.683 L 0.233 -0.683 L 0.557 -0.683 Q 0.678 -0.683 0.73 -0.609 Q 0.754 -0.5740000000000001 0.754 -0.532 Q 0.754 -0.451 0.671 -0.385 Q 0.583 -0.316 0.47300000000000003 -0.316 L 0.303 -0.316 M 0.375 -0.614 L 0.307 -0.342 L 0.448 -0.342 Q 0.543 -0.342 0.602 -0.395 Q 0.643 -0.433 0.658 -0.522 L 0.658 -0.523 Q 0.661 -0.542 0.661 -0.556 Q 0.661 -0.652 0.525 -0.652 L 0.429 -0.652 Q 0.393 -0.652 0.385 -0.642 L 0.385 -0.642 L 0.385 -0.641 L 0.384 -0.641 L 0.384 -0.64 Q 0.38 -0.634 0.375 -0.614 Z"/></g><g transform="translate(8.064538575577526,10.550155357142856) scale(0.7,0.7)"><path fill="rgb(0,0,0)" stroke="none" paint-order="stroke fill markers" d=" M 0.46900000000000003 -0.273 Q 0.46900000000000003 -0.167 0.388 -0.08 Q 0.311 0.004 0.215 0.01 Q 0.20800000000000002 0.011 0.201 0.011 Q 0.114 0.011 0.069 -0.058 Q 0.041 -0.101 0.041 -0.158 Q 0.041 -0.261 0.121 -0.34900000000000003 Q 0.197 -0.433 0.293 -0.441 Q 0.301 -0.442 0.309 -0.442 Q 0.395 -0.442 0.44 -0.375 Q 0.46900000000000003 -0.332 0.46900000000000003 -0.273 M 0.202 -0.011 L 0.202 -0.011 Q 0.261 -0.011 0.313 -0.069 Q 0.327 -0.085 0.338 -0.10300000000000001 Q 0.38 -0.17500000000000002 0.394 -0.28200000000000003 Q 0.395 -0.29 0.395 -0.298 L 0.395 -0.299 L 0.396 -0.3 L 0.396 -0.312 Q 0.396 -0.386 0.34700000000000003 -0.41100000000000003 Q 0.33 -0.42 0.308 -0.42 Q 0.247 -0.42 0.193 -0.356 Q 0.186 -0.34700000000000003 0.18 -0.338 Q 0.176 -0.333 0.17300000000000001 -0.328 Q 0.137 -0.27 0.12 -0.166 Q 0.115 -0.138 0.115 -0.12 Q 0.115 -0.037 0.17300000000000001 -0.016 Q 0.187 -0.011 0.202 -0.011 Z"/></g><g transform="translate(8.404038575577525,10.400155357142856)"><path fill="rgb(0,0,0)" stroke="none" paint-order="stroke fill markers" d=" M 0.255 0.25 L 0.11800000000000001 0.25 L 0.11800000000000001 -0.75 L 0.255 -0.75 L 0.255 -0.71 L 0.158 -0.71 L 0.158 0.21 L 0.255 0.21 L 0.255 0.25 Z"/></g><g transform="translate(8.682038575577526,10.400155357142856)"><path fill="rgb(0,0,0)" stroke="none" paint-order="stroke fill markers" d=" M 0.028 0.169 L 0.18 -0.437 Q 0.209 -0.551 0.292 -0.631 Q 0.37 -0.705 0.456 -0.705 Q 0.539 -0.705 0.5750000000000001 -0.639 Q 0.59 -0.611 0.59 -0.577 Q 0.59 -0.502 0.528 -0.439 Q 0.507 -0.418 0.482 -0.403 Q 0.549 -0.357 0.549 -0.264 Q 0.549 -0.161 0.46900000000000003 -0.076 Q 0.392 0.005 0.296 0.012 L 0.28300000000000003 0.012 Q 0.186 0.012 0.14100000000000001 -0.063 Q 0.129 -0.083 0.123 -0.105 L 0.048 0.188 L 0.047 0.19 Q 0.043000000000000003 0.194 0.037 0.194 Q 0.025 0.194 0.025 0.184 Q 0.025 0.181 0.028 0.169 M 0.328 -0.401 Q 0.34500000000000003 -0.395 0.371 -0.395 Q 0.401 -0.395 0.419 -0.403 Q 0.406 -0.40900000000000003 0.379 -0.40900000000000003 Q 0.34400000000000003 -0.40900000000000003 0.328 -0.401 M 0.45 -0.421 Q 0.511 -0.467 0.525 -0.577 L 0.525 -0.578 L 0.525 -0.58 Q 0.527 -0.594 0.527 -0.602 Q 0.527 -0.673 0.46900000000000003 -0.682 Q 0.462 -0.683 0.455 -0.683 Q 0.372 -0.683 0.299 -0.606 Q 0.23 -0.534 0.2 -0.41600000000000004 L 0.154 -0.231 Q 0.14100000000000001 -0.179 0.14100000000000001 -0.156 Q 0.14100000000000001 -0.074 0.2 -0.034 Q 0.234 -0.01 0.281 -0.01 Q 0.359 -0.01 0.41500000000000004 -0.094 Q 0.422 -0.10300000000000001 0.427 -0.113 Q 0.462 -0.179 0.47400000000000003 -0.274 Q 0.47600000000000003 -0.291 0.47600000000000003 -0.302 Q 0.47600000000000003 -0.355 0.446 -0.386 Q 0.41400000000000003 -0.373 0.371 -0.373 Q 0.303 -0.373 0.303 -0.399 Q 0.303 -0.431 0.381 -0.431 Q 0.422 -0.431 0.45 -0.421 Z"/></g><g transform="translate(9.301038575577525,10.400155357142856)"><path fill="rgb(0,0,0)" stroke="none" paint-order="stroke fill markers" d=" M 0.265 -0.373 L 0.265 -0.373 L 0.209 -0.152 Q 0.192 -0.088 0.182 -0.054 Q 0.166 -0.005 0.152 0.005 L 0.152 0.006 Q 0.14300000000000002 0.011 0.132 0.011 Q 0.109 0.011 0.10400000000000001 -0.009000000000000001 Q 0.10300000000000001 -0.012 0.10300000000000001 -0.016 Q 0.10300000000000001 -0.025 0.111 -0.04 Q 0.20500000000000002 -0.243 0.23900000000000002 -0.373 L 0.182 -0.373 Q 0.10400000000000001 -0.373 0.055 -0.296 Q 0.046 -0.28400000000000003 0.039 -0.28400000000000003 Q 0.027 -0.28400000000000003 0.027 -0.294 Q 0.027 -0.305 0.063 -0.354 Q 0.07 -0.362 0.076 -0.37 Q 0.079 -0.374 0.083 -0.378 Q 0.085 -0.381 0.088 -0.384 Q 0.132 -0.431 0.192 -0.431 L 0.527 -0.431 Q 0.561 -0.431 0.5660000000000001 -0.41600000000000004 L 0.5660000000000001 -0.41500000000000004 Q 0.5670000000000001 -0.41200000000000003 0.5670000000000001 -0.40700000000000003 Q 0.5670000000000001 -0.373 0.518 -0.373 L 0.404 -0.373 Q 0.386 -0.28800000000000003 0.386 -0.214 Q 0.386 -0.121 0.41500000000000004 -0.049 Q 0.421 -0.035 0.421 -0.027 Q 0.421 -0.004 0.396 0.007 Q 0.388 0.011 0.38 0.011 Q 0.36 0.011 0.35000000000000003 -0.017 Q 0.34700000000000003 -0.026000000000000002 0.34400000000000003 -0.039 Q 0.336 -0.073 0.336 -0.115 Q 0.336 -0.181 0.363 -0.306 L 0.378 -0.373 L 0.265 -0.373 Z"/></g><g transform="translate(10.129260797799747,10.400155357142856)"><path fill="rgb(0,0,0)" stroke="none" paint-order="stroke fill markers" d=" M 0.40900000000000003 -0.23 L 0.40900000000000003 0.05 Q 0.40900000000000003 0.082 0.389 0.083 Q 0.369 0.083 0.369 0.05 L 0.369 -0.23 L 0.089 -0.23 Q 0.057 -0.23 0.056 -0.25 Q 0.056 -0.27 0.089 -0.27 L 0.369 -0.27 L 0.369 -0.55 Q 0.369 -0.582 0.389 -0.583 Q 0.40900000000000003 -0.583 0.40900000000000003 -0.55 L 0.40900000000000003 -0.27 L 0.6880000000000001 -0.27 Q 0.72 -0.27 0.721 -0.25 Q 0.721 -0.23 0.6880000000000001 -0.23 L 0.40900000000000003 -0.23 Z"/></g><g transform="translate(11.129483020021969,10.400155357142856)"><path fill="rgb(0,0,0)" stroke="none" paint-order="stroke fill markers" d=" M 0.331 0.24 L 0.331 0.24 Q 0.331 0.25 0.321 0.25 Q 0.309 0.25 0.268 0.209 Q 0.20600000000000002 0.147 0.165 0.062 Q 0.099 -0.074 0.099 -0.25 Q 0.099 -0.419 0.162 -0.555 Q 0.214 -0.666 0.294 -0.733 Q 0.315 -0.75 0.321 -0.75 Q 0.331 -0.75 0.331 -0.74 Q 0.331 -0.735 0.318 -0.723 Q 0.157 -0.559 0.157 -0.25 Q 0.157 0.058 0.314 0.218 Q 0.331 0.23500000000000001 0.331 0.24 Z"/></g><g transform="translate(11.518483020021968,10.400155357142856)"><path fill="rgb(0,0,0)" stroke="none" paint-order="stroke fill markers" d=" M 0.294 -0.64 L 0.294 -0.079 Q 0.294 -0.049 0.306 -0.041 Q 0.323 -0.031 0.387 -0.031 L 0.419 -0.031 L 0.419 0 Q 0.384 -0.003 0.257 -0.003 Q 0.13 -0.003 0.095 0 L 0.095 -0.031 L 0.127 -0.031 Q 0.20400000000000001 -0.031 0.215 -0.049 L 0.216 -0.05 Q 0.22 -0.058 0.22 -0.079 L 0.22 -0.597 Q 0.168 -0.5710000000000001 0.089 -0.5710000000000001 L 0.089 -0.602 Q 0.209 -0.602 0.271 -0.666 Q 0.29 -0.666 0.293 -0.659 L 0.293 -0.659 L 0.293 -0.658 Q 0.294 -0.655 0.294 -0.64 Z"/></g><g transform="translate(12.24070524224419,10.400155357142856)"><path fill="rgb(0,0,0)" stroke="none" paint-order="stroke fill markers" d=" M 0.661 -0.23 L 0.116 -0.23 Q 0.084 -0.23 0.083 -0.25 Q 0.083 -0.27 0.116 -0.27 L 0.661 -0.27 Q 0.6930000000000001 -0.27 0.6940000000000001 -0.25 Q 0.6940000000000001 -0.23 0.661 -0.23 Z"/></g><g transform="translate(13.240927464466411,10.400155357142856)"><path fill="rgb(0,0,0)" stroke="none" paint-order="stroke fill markers" d=" M 0.47700000000000004 -0.23600000000000002 L 0.47700000000000004 -0.23600000000000002 L 0.47700000000000004 -0.17400000000000002 Q 0.542 -0.255 0.5750000000000001 -0.372 Q 0.585 -0.392 0.59 -0.393 Q 0.602 -0.393 0.602 -0.383 Q 0.602 -0.366 0.579 -0.307 Q 0.545 -0.221 0.487 -0.148 Q 0.47700000000000004 -0.128 0.47700000000000004 -0.113 Q 0.47700000000000004 -0.011 0.508 -0.011 Q 0.539 -0.011 0.558 -0.046 Q 0.561 -0.052000000000000005 0.5640000000000001 -0.06 Q 0.5680000000000001 -0.07 0.577 -0.07 Q 0.589 -0.07 0.589 -0.06 Q 0.589 -0.041 0.5640000000000001 -0.015 Q 0.538 0.011 0.505 0.011 Q 0.442 0.011 0.418 -0.058 Q 0.41600000000000004 -0.065 0.41400000000000003 -0.073 Q 0.309 0.011 0.203 0.011 Q 0.109 0.011 0.065 -0.064 Q 0.041 -0.105 0.041 -0.158 Q 0.041 -0.26 0.11900000000000001 -0.34700000000000003 Q 0.196 -0.433 0.293 -0.441 Q 0.302 -0.442 0.31 -0.442 Q 0.394 -0.442 0.44 -0.376 Q 0.44 -0.375 0.441 -0.375 Q 0.47700000000000004 -0.322 0.47700000000000004 -0.23600000000000002 M 0.41000000000000003 -0.099 L 0.41000000000000003 -0.099 Q 0.40800000000000003 -0.116 0.40800000000000003 -0.211 Q 0.40800000000000003 -0.334 0.381 -0.379 Q 0.369 -0.399 0.352 -0.40900000000000003 L 0.35100000000000003 -0.41000000000000003 L 0.35100000000000003 -0.41000000000000003 L 0.35000000000000003 -0.41000000000000003 Q 0.332 -0.42 0.309 -0.42 Q 0.23800000000000002 -0.42 0.181 -0.34 L 0.17300000000000001 -0.328 Q 0.137 -0.27 0.12 -0.166 Q 0.115 -0.138 0.115 -0.12 Q 0.115 -0.036000000000000004 0.17400000000000002 -0.016 Q 0.188 -0.011 0.20500000000000002 -0.011 Q 0.309 -0.011 0.41000000000000003 -0.099 Z"/></g><g transform="translate(13.884927464466411,10.400155357142856)"><path fill="rgb(0,0,0)" stroke="none" paint-order="stroke fill markers" d=" M 0.289 -0.25 L 0.289 -0.25 Q 0.289 -0.081 0.226 0.055 Q 0.17400000000000002 0.166 0.094 0.233 Q 0.073 0.25 0.067 0.25 Q 0.057 0.25 0.057 0.24 Q 0.057 0.23500000000000001 0.07 0.223 Q 0.231 0.059000000000000004 0.231 -0.25 Q 0.231 -0.555 0.081 -0.712 L 0.076 -0.717 Q 0.057 -0.735 0.057 -0.74 Q 0.057 -0.75 0.067 -0.75 Q 0.079 -0.75 0.12 -0.709 Q 0.182 -0.647 0.223 -0.562 Q 0.289 -0.426 0.289 -0.25 Z"/></g><g transform="translate(14.27392746446641,10.400155357142856)"><path fill="rgb(0,0,0)" stroke="none" paint-order="stroke fill markers" d=" M 0.331 0.24 L 0.331 0.24 Q 0.331 0.25 0.321 0.25 Q 0.309 0.25 0.268 0.209 Q 0.20600000000000002 0.147 0.165 0.062 Q 0.099 -0.074 0.099 -0.25 Q 0.099 -0.419 0.162 -0.555 Q 0.214 -0.666 0.294 -0.733 Q 0.315 -0.75 0.321 -0.75 Q 0.331 -0.75 0.331 -0.74 Q 0.331 -0.735 0.318 -0.723 Q 0.157 -0.559 0.157 -0.25 Q 0.157 0.058 0.314 0.218 Q 0.331 0.23500000000000001 0.331 0.24 Z"/></g><g transform="translate(14.66292746446641,10.400155357142856)"><path fill="rgb(0,0,0)" stroke="none" paint-order="stroke fill markers" d=" M 0.294 -0.64 L 0.294 -0.079 Q 0.294 -0.049 0.306 -0.041 Q 0.323 -0.031 0.387 -0.031 L 0.419 -0.031 L 0.419 0 Q 0.384 -0.003 0.257 -0.003 Q 0.13 -0.003 0.095 0 L 0.095 -0.031 L 0.127 -0.031 Q 0.20400000000000001 -0.031 0.215 -0.049 L 0.216 -0.05 Q 0.22 -0.058 0.22 -0.079 L 0.22 -0.597 Q 0.168 -0.5710000000000001 0.089 -0.5710000000000001 L 0.089 -0.602 Q 0.209 -0.602 0.271 -0.666 Q 0.29 -0.666 0.293 -0.659 L 0.293 -0.659 L 0.293 -0.658 Q 0.294 -0.655 0.294 -0.64 Z"/></g><g transform="translate(15.385149686688631,10.400155357142856)"><path fill="rgb(0,0,0)" stroke="none" paint-order="stroke fill markers" d=" M 0.661 -0.23 L 0.116 -0.23 Q 0.084 -0.23 0.083 -0.25 Q 0.083 -0.27 0.116 -0.27 L 0.661 -0.27 Q 0.6930000000000001 -0.27 0.6940000000000001 -0.25 Q 0.6940000000000001 -0.23 0.661 -0.23 Z"/></g><g transform="translate(16.38537190891085,10.400155357142856)"><path fill="rgb(0,0,0)" stroke="none" paint-order="stroke fill markers" d=" M 0.265 -0.373 L 0.265 -0.373 L 0.209 -0.152 Q 0.192 -0.088 0.182 -0.054 Q 0.166 -0.005 0.152 0.005 L 0.152 0.006 Q 0.14300000000000002 0.011 0.132 0.011 Q 0.109 0.011 0.10400000000000001 -0.009000000000000001 Q 0.10300000000000001 -0.012 0.10300000000000001 -0.016 Q 0.10300000000000001 -0.025 0.111 -0.04 Q 0.20500000000000002 -0.243 0.23900000000000002 -0.373 L 0.182 -0.373 Q 0.10400000000000001 -0.373 0.055 -0.296 Q 0.046 -0.28400000000000003 0.039 -0.28400000000000003 Q 0.027 -0.28400000000000003 0.027 -0.294 Q 0.027 -0.305 0.063 -0.354 Q 0.07 -0.362 0.076 -0.37 Q 0.079 -0.374 0.083 -0.378 Q 0.085 -0.381 0.088 -0.384 Q 0.132 -0.431 0.192 -0.431 L 0.527 -0.431 Q 0.561 -0.431 0.5660000000000001 -0.41600000000000004 L 0.5660000000000001 -0.41500000000000004 Q 0.5670000000000001 -0.41200000000000003 0.5670000000000001 -0.40700000000000003 Q 0.5670000000000001 -0.373 0.518 -0.373 L 0.404 -0.373 Q 0.386 -0.28800000000000003 0.386 -0.214 Q 0.386 -0.121 0.41500000000000004 -0.049 Q 0.421 -0.035 0.421 -0.027 Q 0.421 -0.004 0.396 0.007 Q 0.388 0.011 0.38 0.011 Q 0.36 0.011 0.35000000000000003 -0.017 Q 0.34700000000000003 -0.026000000000000002 0.34400000000000003 -0.039 Q 0.336 -0.073 0.336 -0.115 Q 0.336 -0.181 0.363 -0.306 L 0.378 -0.373 L 0.265 -0.373 Z"/></g><g transform="translate(16.991371908910853,10.400155357142856)"><path fill="rgb(0,0,0)" stroke="none" paint-order="stroke fill markers" d=" M 0.289 -0.25 L 0.289 -0.25 Q 0.289 -0.081 0.226 0.055 Q 0.17400000000000002 0.166 0.094 0.233 Q 0.073 0.25 0.067 0.25 Q 0.057 0.25 0.057 0.24 Q 0.057 0.23500000000000001 0.07 0.223 Q 0.231 0.059000000000000004 0.231 -0.25 Q 0.231 -0.555 0.081 -0.712 L 0.076 -0.717 Q 0.057 -0.735 0.057 -0.74 Q 0.057 -0.75 0.067 -0.75 Q 0.079 -0.75 0.12 -0.709 Q 0.182 -0.647 0.223 -0.562 Q 0.289 -0.426 0.289 -0.25 Z"/></g><g transform="translate(17.38037190891086,10.400155357142856)"><path fill="rgb(0,0,0)" stroke="none" paint-order="stroke fill markers" d=" M 0.159 -0.75 L 0.159 0.25 L 0.022 0.25 L 0.022 0.21 L 0.11900000000000001 0.21 L 0.11900000000000001 -0.71 L 0.022 -0.71 L 0.022 -0.75 L 0.159 -0.75 Z"/></g><g transform="translate(17.82503857557753,10.400155357142856)"><path fill="rgb(0,0,0)" stroke="none" paint-order="stroke fill markers" d=" M 0.40900000000000003 -0.23 L 0.40900000000000003 0.05 Q 0.40900000000000003 0.082 0.389 0.083 Q 0.369 0.083 0.369 0.05 L 0.369 -0.23 L 0.089 -0.23 Q 0.057 -0.23 0.056 -0.25 Q 0.056 -0.27 0.089 -0.27 L 0.369 -0.27 L 0.369 -0.55 Q 0.369 -0.582 0.389 -0.583 Q 0.40900000000000003 -0.583 0.40900000000000003 -0.55 L 0.40900000000000003 -0.27 L 0.6880000000000001 -0.27 Q 0.72 -0.27 0.721 -0.25 Q 0.721 -0.23 0.6880000000000001 -0.23 L 0.40900000000000003 -0.23 Z"/></g><g transform="translate(18.85941842099632,9.723647357142855)"><path fill="rgb(0,0,0)" stroke="none" paint-order="stroke fill markers" d=" M 0.331 0.24 L 0.331 0.24 Q 0.331 0.25 0.321 0.25 Q 0.309 0.25 0.268 0.209 Q 0.20600000000000002 0.147 0.165 0.062 Q 0.099 -0.074 0.099 -0.25 Q 0.099 -0.419 0.162 -0.555 Q 0.214 -0.666 0.294 -0.733 Q 0.315 -0.75 0.321 -0.75 Q 0.331 -0.75 0.331 -0.74 Q 0.331 -0.735 0.318 -0.723 Q 0.157 -0.559 0.157 -0.25 Q 0.157 0.058 0.314 0.218 Q 0.331 0.23500000000000001 0.331 0.24 Z"/></g><g transform="translate(19.24841842099632,9.723647357142855)"><path fill="rgb(0,0,0)" stroke="none" paint-order="stroke fill markers" d=" M 0.294 -0.64 L 0.294 -0.079 Q 0.294 -0.049 0.306 -0.041 Q 0.323 -0.031 0.387 -0.031 L 0.419 -0.031 L 0.419 0 Q 0.384 -0.003 0.257 -0.003 Q 0.13 -0.003 0.095 0 L 0.095 -0.031 L 0.127 -0.031 Q 0.20400000000000001 -0.031 0.215 -0.049 L 0.216 -0.05 Q 0.22 -0.058 0.22 -0.079 L 0.22 -0.597 Q 0.168 -0.5710000000000001 0.089 -0.5710000000000001 L 0.089 -0.602 Q 0.209 -0.602 0.271 -0.666 Q 0.29 -0.666 0.293 -0.659 L 0.293 -0.659 L 0.293 -0.658 Q 0.294 -0.655 0.294 -0.64 Z"/></g><g transform="translate(19.97064064321854,9.723647357142855)"><path fill="rgb(0,0,0)" stroke="none" paint-order="stroke fill markers" d=" M 0.661 -0.23 L 0.116 -0.23 Q 0.084 -0.23 0.083 -0.25 Q 0.083 -0.27 0.116 -0.27 L 0.661 -0.27 Q 0.6930000000000001 -0.27 0.6940000000000001 -0.25 Q 0.6940000000000001 -0.23 0.661 -0.23 Z"/></g><g transform="translate(20.97086286544076,9.723647357142855)"><path fill="rgb(0,0,0)" stroke="none" paint-order="stroke fill markers" d=" M 0.357 -0.292 L 0.116 -0.008 Q 0.099 0.013000000000000001 0.083 0.013000000000000001 Q 0.06 0.013000000000000001 0.054 -0.008 Q 0.053 -0.012 0.053 -0.016 Q 0.053 -0.029 0.07100000000000001 -0.047 L 0.34700000000000003 -0.321 L 0.25 -0.593 Q 0.228 -0.653 0.213 -0.664 L 0.212 -0.664 L 0.21 -0.666 L 0.209 -0.666 Q 0.201 -0.67 0.185 -0.673 Q 0.178 -0.673 0.176 -0.683 Q 0.176 -0.6940000000000001 0.194 -0.6940000000000001 Q 0.29 -0.6940000000000001 0.316 -0.623 L 0.52 -0.054 Q 0.532 -0.02 0.543 -0.008 Q 0.548 -0.001 0.548 0.001 Q 0.548 0.01 0.537 0.011 L 0.515 0.011 Q 0.483 0.011 0.47200000000000003 0.001 Q 0.467 -0.004 0.462 -0.011 Q 0.454 -0.023 0.392 -0.197 Q 0.371 -0.256 0.357 -0.292 Z"/></g><g transform="translate(21.55386286544076,9.723647357142855)"><path fill="rgb(0,0,0)" stroke="none" paint-order="stroke fill markers" d=" M 0.289 -0.25 L 0.289 -0.25 Q 0.289 -0.081 0.226 0.055 Q 0.17400000000000002 0.166 0.094 0.233 Q 0.073 0.25 0.067 0.25 Q 0.057 0.25 0.057 0.24 Q 0.057 0.23500000000000001 0.07 0.223 Q 0.231 0.059000000000000004 0.231 -0.25 Q 0.231 -0.555 0.081 -0.712 L 0.076 -0.717 Q 0.057 -0.735 0.057 -0.74 Q 0.057 -0.75 0.067 -0.75 Q 0.079 -0.75 0.12 -0.709 Q 0.182 -0.647 0.223 -0.562 Q 0.289 -0.426 0.289 -0.25 Z"/></g><g transform="translate(21.94286286544076,9.723647357142855)"><path fill="rgb(0,0,0)" stroke="none" paint-order="stroke fill markers" d=" M 0.331 0.24 L 0.331 0.24 Q 0.331 0.25 0.321 0.25 Q 0.309 0.25 0.268 0.209 Q 0.20600000000000002 0.147 0.165 0.062 Q 0.099 -0.074 0.099 -0.25 Q 0.099 -0.419 0.162 -0.555 Q 0.214 -0.666 0.294 -0.733 Q 0.315 -0.75 0.321 -0.75 Q 0.331 -0.75 0.331 -0.74 Q 0.331 -0.735 0.318 -0.723 Q 0.157 -0.559 0.157 -0.25 Q 0.157 0.058 0.314 0.218 Q 0.331 0.23500000000000001 0.331 0.24 Z"/></g><g transform="translate(22.33186286544076,9.723647357142855)"><path fill="rgb(0,0,0)" stroke="none" paint-order="stroke fill markers" d=" M 0.294 -0.64 L 0.294 -0.079 Q 0.294 -0.049 0.306 -0.041 Q 0.323 -0.031 0.387 -0.031 L 0.419 -0.031 L 0.419 0 Q 0.384 -0.003 0.257 -0.003 Q 0.13 -0.003 0.095 0 L 0.095 -0.031 L 0.127 -0.031 Q 0.20400000000000001 -0.031 0.215 -0.049 L 0.216 -0.05 Q 0.22 -0.058 0.22 -0.079 L 0.22 -0.597 Q 0.168 -0.5710000000000001 0.089 -0.5710000000000001 L 0.089 -0.602 Q 0.209 -0.602 0.271 -0.666 Q 0.29 -0.666 0.293 -0.659 L 0.293 -0.659 L 0.293 -0.658 Q 0.294 -0.655 0.294 -0.64 Z"/></g><g transform="translate(23.05408508766298,9.723647357142855)"><path fill="rgb(0,0,0)" stroke="none" paint-order="stroke fill markers" d=" M 0.661 -0.23 L 0.116 -0.23 Q 0.084 -0.23 0.083 -0.25 Q 0.083 -0.27 0.116 -0.27 L 0.661 -0.27 Q 0.6930000000000001 -0.27 0.6940000000000001 -0.25 Q 0.6940000000000001 -0.23 0.661 -0.23 Z"/></g><g transform="translate(24.0543073098852,9.723647357142855)"><path fill="rgb(0,0,0)" stroke="none" paint-order="stroke fill markers" d=" M 0.028 0.169 L 0.18 -0.437 Q 0.209 -0.551 0.292 -0.631 Q 0.37 -0.705 0.456 -0.705 Q 0.539 -0.705 0.5750000000000001 -0.639 Q 0.59 -0.611 0.59 -0.577 Q 0.59 -0.502 0.528 -0.439 Q 0.507 -0.418 0.482 -0.403 Q 0.549 -0.357 0.549 -0.264 Q 0.549 -0.161 0.46900000000000003 -0.076 Q 0.392 0.005 0.296 0.012 L 0.28300000000000003 0.012 Q 0.186 0.012 0.14100000000000001 -0.063 Q 0.129 -0.083 0.123 -0.105 L 0.048 0.188 L 0.047 0.19 Q 0.043000000000000003 0.194 0.037 0.194 Q 0.025 0.194 0.025 0.184 Q 0.025 0.181 0.028 0.169 M 0.328 -0.401 Q 0.34500000000000003 -0.395 0.371 -0.395 Q 0.401 -0.395 0.419 -0.403 Q 0.406 -0.40900000000000003 0.379 -0.40900000000000003 Q 0.34400000000000003 -0.40900000000000003 0.328 -0.401 M 0.45 -0.421 Q 0.511 -0.467 0.525 -0.577 L 0.525 -0.578 L 0.525 -0.58 Q 0.527 -0.594 0.527 -0.602 Q 0.527 -0.673 0.46900000000000003 -0.682 Q 0.462 -0.683 0.455 -0.683 Q 0.372 -0.683 0.299 -0.606 Q 0.23 -0.534 0.2 -0.41600000000000004 L 0.154 -0.231 Q 0.14100000000000001 -0.179 0.14100000000000001 -0.156 Q 0.14100000000000001 -0.074 0.2 -0.034 Q 0.234 -0.01 0.281 -0.01 Q 0.359 -0.01 0.41500000000000004 -0.094 Q 0.422 -0.10300000000000001 0.427 -0.113 Q 0.462 -0.179 0.47400000000000003 -0.274 Q 0.47600000000000003 -0.291 0.47600000000000003 -0.302 Q 0.47600000000000003 -0.355 0.446 -0.386 Q 0.41400000000000003 -0.373 0.371 -0.373 Q 0.303 -0.373 0.303 -0.399 Q 0.303 -0.431 0.381 -0.431 Q 0.422 -0.431 0.45 -0.421 Z"/></g><g transform="translate(24.6733073098852,9.723647357142855)"><path fill="rgb(0,0,0)" stroke="none" paint-order="stroke fill markers" d=" M 0.289 -0.25 L 0.289 -0.25 Q 0.289 -0.081 0.226 0.055 Q 0.17400000000000002 0.166 0.094 0.233 Q 0.073 0.25 0.067 0.25 Q 0.057 0.25 0.057 0.24 Q 0.057 0.23500000000000001 0.07 0.223 Q 0.231 0.059000000000000004 0.231 -0.25 Q 0.231 -0.555 0.081 -0.712 L 0.076 -0.717 Q 0.057 -0.735 0.057 -0.74 Q 0.057 -0.75 0.067 -0.75 Q 0.079 -0.75 0.12 -0.709 Q 0.182 -0.647 0.223 -0.562 Q 0.289 -0.426 0.289 -0.25 Z"/></g><g transform="translate(25.0623073098852,9.723647357142855)"><path fill="rgb(0,0,0)" stroke="none" paint-order="stroke fill markers" d=" M 0.265 -0.373 L 0.265 -0.373 L 0.209 -0.152 Q 0.192 -0.088 0.182 -0.054 Q 0.166 -0.005 0.152 0.005 L 0.152 0.006 Q 0.14300000000000002 0.011 0.132 0.011 Q 0.109 0.011 0.10400000000000001 -0.009000000000000001 Q 0.10300000000000001 -0.012 0.10300000000000001 -0.016 Q 0.10300000000000001 -0.025 0.111 -0.04 Q 0.20500000000000002 -0.243 0.23900000000000002 -0.373 L 0.182 -0.373 Q 0.10400000000000001 -0.373 0.055 -0.296 Q 0.046 -0.28400000000000003 0.039 -0.28400000000000003 Q 0.027 -0.28400000000000003 0.027 -0.294 Q 0.027 -0.305 0.063 -0.354 Q 0.07 -0.362 0.076 -0.37 Q 0.079 -0.374 0.083 -0.378 Q 0.085 -0.381 0.088 -0.384 Q 0.132 -0.431 0.192 -0.431 L 0.527 -0.431 Q 0.561 -0.431 0.5660000000000001 -0.41600000000000004 L 0.5660000000000001 -0.41500000000000004 Q 0.5670000000000001 -0.41200000000000003 0.5670000000000001 -0.40700000000000003 Q 0.5670000000000001 -0.373 0.518 -0.373 L 0.404 -0.373 Q 0.386 -0.28800000000000003 0.386 -0.214 Q 0.386 -0.121 0.41500000000000004 -0.049 Q 0.421 -0.035 0.421 -0.027 Q 0.421 -0.004 0.396 0.007 Q 0.388 0.011 0.38 0.011 Q 0.36 0.011 0.35000000000000003 -0.017 Q 0.34700000000000003 -0.026000000000000002 0.34400000000000003 -0.039 Q 0.336 -0.073 0.336 -0.115 Q 0.336 -0.181 0.363 -0.306 L 0.378 -0.373 L 0.265 -0.373 Z"/></g><g transform="translate(25.6683073098852,9.723647357142855)"><path fill="rgb(0,0,0)" stroke="none" paint-order="stroke fill markers" d=" M 0.255 0.25 L 0.11800000000000001 0.25 L 0.11800000000000001 -0.75 L 0.255 -0.75 L 0.255 -0.71 L 0.158 -0.71 L 0.158 0.21 L 0.255 0.21 L 0.255 0.25 Z"/></g><g transform="translate(25.9463073098852,9.723647357142855)"><path fill="rgb(0,0,0)" stroke="none" paint-order="stroke fill markers" d=" M 0.028 0.169 L 0.18 -0.437 Q 0.209 -0.551 0.292 -0.631 Q 0.37 -0.705 0.456 -0.705 Q 0.539 -0.705 0.5750000000000001 -0.639 Q 0.59 -0.611 0.59 -0.577 Q 0.59 -0.502 0.528 -0.439 Q 0.507 -0.418 0.482 -0.403 Q 0.549 -0.357 0.549 -0.264 Q 0.549 -0.161 0.46900000000000003 -0.076 Q 0.392 0.005 0.296 0.012 L 0.28300000000000003 0.012 Q 0.186 0.012 0.14100000000000001 -0.063 Q 0.129 -0.083 0.123 -0.105 L 0.048 0.188 L 0.047 0.19 Q 0.043000000000000003 0.194 0.037 0.194 Q 0.025 0.194 0.025 0.184 Q 0.025 0.181 0.028 0.169 M 0.328 -0.401 Q 0.34500000000000003 -0.395 0.371 -0.395 Q 0.401 -0.395 0.419 -0.403 Q 0.406 -0.40900000000000003 0.379 -0.40900000000000003 Q 0.34400000000000003 -0.40900000000000003 0.328 -0.401 M 0.45 -0.421 Q 0.511 -0.467 0.525 -0.577 L 0.525 -0.578 L 0.525 -0.58 Q 0.527 -0.594 0.527 -0.602 Q 0.527 -0.673 0.46900000000000003 -0.682 Q 0.462 -0.683 0.455 -0.683 Q 0.372 -0.683 0.299 -0.606 Q 0.23 -0.534 0.2 -0.41600000000000004 L 0.154 -0.231 Q 0.14100000000000001 -0.179 0.14100000000000001 -0.156 Q 0.14100000000000001 -0.074 0.2 -0.034 Q 0.234 -0.01 0.281 -0.01 Q 0.359 -0.01 0.41500000000000004 -0.094 Q 0.422 -0.10300000000000001 0.427 -0.113 Q 0.462 -0.179 0.47400000000000003 -0.274 Q 0.47600000000000003 -0.291 0.47600000000000003 -0.302 Q 0.47600000000000003 -0.355 0.446 -0.386 Q 0.41400000000000003 -0.373 0.371 -0.373 Q 0.303 -0.373 0.303 -0.399 Q 0.303 -0.431 0.381 -0.431 Q 0.422 -0.431 0.45 -0.421 Z"/></g><g transform="translate(26.5653073098852,9.723647357142855)"><path fill="rgb(0,0,0)" stroke="none" paint-order="stroke fill markers" d=" M 0.265 -0.373 L 0.265 -0.373 L 0.209 -0.152 Q 0.192 -0.088 0.182 -0.054 Q 0.166 -0.005 0.152 0.005 L 0.152 0.006 Q 0.14300000000000002 0.011 0.132 0.011 Q 0.109 0.011 0.10400000000000001 -0.009000000000000001 Q 0.10300000000000001 -0.012 0.10300000000000001 -0.016 Q 0.10300000000000001 -0.025 0.111 -0.04 Q 0.20500000000000002 -0.243 0.23900000000000002 -0.373 L 0.182 -0.373 Q 0.10400000000000001 -0.373 0.055 -0.296 Q 0.046 -0.28400000000000003 0.039 -0.28400000000000003 Q 0.027 -0.28400000000000003 0.027 -0.294 Q 0.027 -0.305 0.063 -0.354 Q 0.07 -0.362 0.076 -0.37 Q 0.079 -0.374 0.083 -0.378 Q 0.085 -0.381 0.088 -0.384 Q 0.132 -0.431 0.192 -0.431 L 0.527 -0.431 Q 0.561 -0.431 0.5660000000000001 -0.41600000000000004 L 0.5660000000000001 -0.41500000000000004 Q 0.5670000000000001 -0.41200000000000003 0.5670000000000001 -0.40700000000000003 Q 0.5670000000000001 -0.373 0.518 -0.373 L 0.404 -0.373 Q 0.386 -0.28800000000000003 0.386 -0.214 Q 0.386 -0.121 0.41500000000000004 -0.049 Q 0.421 -0.035 0.421 -0.027 Q 0.421 -0.004 0.396 0.007 Q 0.388 0.011 0.38 0.011 Q 0.36 0.011 0.35000000000000003 -0.017 Q 0.34700000000000003 -0.026000000000000002 0.34400000000000003 -0.039 Q 0.336 -0.073 0.336 -0.115 Q 0.336 -0.181 0.363 -0.306 L 0.378 -0.373 L 0.265 -0.373 Z"/></g><g transform="translate(27.393529532107422,9.723647357142855)"><path fill="rgb(0,0,0)" stroke="none" paint-order="stroke fill markers" d=" M 0.40900000000000003 -0.23 L 0.40900000000000003 0.05 Q 0.40900000000000003 0.082 0.389 0.083 Q 0.369 0.083 0.369 0.05 L 0.369 -0.23 L 0.089 -0.23 Q 0.057 -0.23 0.056 -0.25 Q 0.056 -0.27 0.089 -0.27 L 0.369 -0.27 L 0.369 -0.55 Q 0.369 -0.582 0.389 -0.583 Q 0.40900000000000003 -0.583 0.40900000000000003 -0.55 L 0.40900000000000003 -0.27 L 0.6880000000000001 -0.27 Q 0.72 -0.27 0.721 -0.25 Q 0.721 -0.23 0.6880000000000001 -0.23 L 0.40900000000000003 -0.23 Z"/></g><g transform="translate(28.393751754329642,9.723647357142855)"><path fill="rgb(0,0,0)" stroke="none" paint-order="stroke fill markers" d=" M 0.331 0.24 L 0.331 0.24 Q 0.331 0.25 0.321 0.25 Q 0.309 0.25 0.268 0.209 Q 0.20600000000000002 0.147 0.165 0.062 Q 0.099 -0.074 0.099 -0.25 Q 0.099 -0.419 0.162 -0.555 Q 0.214 -0.666 0.294 -0.733 Q 0.315 -0.75 0.321 -0.75 Q 0.331 -0.75 0.331 -0.74 Q 0.331 -0.735 0.318 -0.723 Q 0.157 -0.559 0.157 -0.25 Q 0.157 0.058 0.314 0.218 Q 0.331 0.23500000000000001 0.331 0.24 Z"/></g><g transform="translate(28.78275175432964,9.723647357142855)"><path fill="rgb(0,0,0)" stroke="none" paint-order="stroke fill markers" d=" M 0.294 -0.64 L 0.294 -0.079 Q 0.294 -0.049 0.306 -0.041 Q 0.323 -0.031 0.387 -0.031 L 0.419 -0.031 L 0.419 0 Q 0.384 -0.003 0.257 -0.003 Q 0.13 -0.003 0.095 0 L 0.095 -0.031 L 0.127 -0.031 Q 0.20400000000000001 -0.031 0.215 -0.049 L 0.216 -0.05 Q 0.22 -0.058 0.22 -0.079 L 0.22 -0.597 Q 0.168 -0.5710000000000001 0.089 -0.5710000000000001 L 0.089 -0.602 Q 0.209 -0.602 0.271 -0.666 Q 0.29 -0.666 0.293 -0.659 L 0.293 -0.659 L 0.293 -0.658 Q 0.294 -0.655 0.294 -0.64 Z"/></g><g transform="translate(29.504973976551863,9.723647357142855)"><path fill="rgb(0,0,0)" stroke="none" paint-order="stroke fill markers" d=" M 0.661 -0.23 L 0.116 -0.23 Q 0.084 -0.23 0.083 -0.25 Q 0.083 -0.27 0.116 -0.27 L 0.661 -0.27 Q 0.6930000000000001 -0.27 0.6940000000000001 -0.25 Q 0.6940000000000001 -0.23 0.661 -0.23 Z"/></g><g transform="translate(30.505196198774083,9.723647357142855)"><path fill="rgb(0,0,0)" stroke="none" paint-order="stroke fill markers" d=" M 0.47700000000000004 -0.23600000000000002 L 0.47700000000000004 -0.23600000000000002 L 0.47700000000000004 -0.17400000000000002 Q 0.542 -0.255 0.5750000000000001 -0.372 Q 0.585 -0.392 0.59 -0.393 Q 0.602 -0.393 0.602 -0.383 Q 0.602 -0.366 0.579 -0.307 Q 0.545 -0.221 0.487 -0.148 Q 0.47700000000000004 -0.128 0.47700000000000004 -0.113 Q 0.47700000000000004 -0.011 0.508 -0.011 Q 0.539 -0.011 0.558 -0.046 Q 0.561 -0.052000000000000005 0.5640000000000001 -0.06 Q 0.5680000000000001 -0.07 0.577 -0.07 Q 0.589 -0.07 0.589 -0.06 Q 0.589 -0.041 0.5640000000000001 -0.015 Q 0.538 0.011 0.505 0.011 Q 0.442 0.011 0.418 -0.058 Q 0.41600000000000004 -0.065 0.41400000000000003 -0.073 Q 0.309 0.011 0.203 0.011 Q 0.109 0.011 0.065 -0.064 Q 0.041 -0.105 0.041 -0.158 Q 0.041 -0.26 0.11900000000000001 -0.34700000000000003 Q 0.196 -0.433 0.293 -0.441 Q 0.302 -0.442 0.31 -0.442 Q 0.394 -0.442 0.44 -0.376 Q 0.44 -0.375 0.441 -0.375 Q 0.47700000000000004 -0.322 0.47700000000000004 -0.23600000000000002 M 0.41000000000000003 -0.099 L 0.41000000000000003 -0.099 Q 0.40800000000000003 -0.116 0.40800000000000003 -0.211 Q 0.40800000000000003 -0.334 0.381 -0.379 Q 0.369 -0.399 0.352 -0.40900000000000003 L 0.35100000000000003 -0.41000000000000003 L 0.35100000000000003 -0.41000000000000003 L 0.35000000000000003 -0.41000000000000003 Q 0.332 -0.42 0.309 -0.42 Q 0.23800000000000002 -0.42 0.181 -0.34 L 0.17300000000000001 -0.328 Q 0.137 -0.27 0.12 -0.166 Q 0.115 -0.138 0.115 -0.12 Q 0.115 -0.036000000000000004 0.17400000000000002 -0.016 Q 0.188 -0.011 0.20500000000000002 -0.011 Q 0.309 -0.011 0.41000000000000003 -0.099 Z"/></g><g transform="translate(31.14919619877408,9.723647357142855)"><path fill="rgb(0,0,0)" stroke="none" paint-order="stroke fill markers" d=" M 0.289 -0.25 L 0.289 -0.25 Q 0.289 -0.081 0.226 0.055 Q 0.17400000000000002 0.166 0.094 0.233 Q 0.073 0.25 0.067 0.25 Q 0.057 0.25 0.057 0.24 Q 0.057 0.23500000000000001 0.07 0.223 Q 0.231 0.059000000000000004 0.231 -0.25 Q 0.231 -0.555 0.081 -0.712 L 0.076 -0.717 Q 0.057 -0.735 0.057 -0.74 Q 0.057 -0.75 0.067 -0.75 Q 0.079 -0.75 0.12 -0.709 Q 0.182 -0.647 0.223 -0.562 Q 0.289 -0.426 0.289 -0.25 Z"/></g><g transform="translate(31.53819619877408,9.723647357142855)"><path fill="rgb(0,0,0)" stroke="none" paint-order="stroke fill markers" d=" M 0.331 0.24 L 0.331 0.24 Q 0.331 0.25 0.321 0.25 Q 0.309 0.25 0.268 0.209 Q 0.20600000000000002 0.147 0.165 0.062 Q 0.099 -0.074 0.099 -0.25 Q 0.099 -0.419 0.162 -0.555 Q 0.214 -0.666 0.294 -0.733 Q 0.315 -0.75 0.321 -0.75 Q 0.331 -0.75 0.331 -0.74 Q 0.331 -0.735 0.318 -0.723 Q 0.157 -0.559 0.157 -0.25 Q 0.157 0.058 0.314 0.218 Q 0.331 0.23500000000000001 0.331 0.24 Z"/></g><g transform="translate(31.92719619877408,9.723647357142855)"><path fill="rgb(0,0,0)" stroke="none" paint-order="stroke fill markers" d=" M 0.294 -0.64 L 0.294 -0.079 Q 0.294 -0.049 0.306 -0.041 Q 0.323 -0.031 0.387 -0.031 L 0.419 -0.031 L 0.419 0 Q 0.384 -0.003 0.257 -0.003 Q 0.13 -0.003 0.095 0 L 0.095 -0.031 L 0.127 -0.031 Q 0.20400000000000001 -0.031 0.215 -0.049 L 0.216 -0.05 Q 0.22 -0.058 0.22 -0.079 L 0.22 -0.597 Q 0.168 -0.5710000000000001 0.089 -0.5710000000000001 L 0.089 -0.602 Q 0.209 -0.602 0.271 -0.666 Q 0.29 -0.666 0.293 -0.659 L 0.293 -0.659 L 0.293 -0.658 Q 0.294 -0.655 0.294 -0.64 Z"/></g><g transform="translate(32.649418420996305,9.723647357142855)"><path fill="rgb(0,0,0)" stroke="none" paint-order="stroke fill markers" d=" M 0.661 -0.23 L 0.116 -0.23 Q 0.084 -0.23 0.083 -0.25 Q 0.083 -0.27 0.116 -0.27 L 0.661 -0.27 Q 0.6930000000000001 -0.27 0.6940000000000001 -0.25 Q 0.6940000000000001 -0.23 0.661 -0.23 Z"/></g><g transform="translate(33.649640643218525,9.723647357142855)"><path fill="rgb(0,0,0)" stroke="none" paint-order="stroke fill markers" d=" M 0.265 -0.373 L 0.265 -0.373 L 0.209 -0.152 Q 0.192 -0.088 0.182 -0.054 Q 0.166 -0.005 0.152 0.005 L 0.152 0.006 Q 0.14300000000000002 0.011 0.132 0.011 Q 0.109 0.011 0.10400000000000001 -0.009000000000000001 Q 0.10300000000000001 -0.012 0.10300000000000001 -0.016 Q 0.10300000000000001 -0.025 0.111 -0.04 Q 0.20500000000000002 -0.243 0.23900000000000002 -0.373 L 0.182 -0.373 Q 0.10400000000000001 -0.373 0.055 -0.296 Q 0.046 -0.28400000000000003 0.039 -0.28400000000000003 Q 0.027 -0.28400000000000003 0.027 -0.294 Q 0.027 -0.305 0.063 -0.354 Q 0.07 -0.362 0.076 -0.37 Q 0.079 -0.374 0.083 -0.378 Q 0.085 -0.381 0.088 -0.384 Q 0.132 -0.431 0.192 -0.431 L 0.527 -0.431 Q 0.561 -0.431 0.5660000000000001 -0.41600000000000004 L 0.5660000000000001 -0.41500000000000004 Q 0.5670000000000001 -0.41200000000000003 0.5670000000000001 -0.40700000000000003 Q 0.5670000000000001 -0.373 0.518 -0.373 L 0.404 -0.373 Q 0.386 -0.28800000000000003 0.386 -0.214 Q 0.386 -0.121 0.41500000000000004 -0.049 Q 0.421 -0.035 0.421 -0.027 Q 0.421 -0.004 0.396 0.007 Q 0.388 0.011 0.38 0.011 Q 0.36 0.011 0.35000000000000003 -0.017 Q 0.34700000000000003 -0.026000000000000002 0.34400000000000003 -0.039 Q 0.336 -0.073 0.336 -0.115 Q 0.336 -0.181 0.363 -0.306 L 0.378 -0.373 L 0.265 -0.373 Z"/></g><g transform="translate(34.25564064321853,9.723647357142855)"><path fill="rgb(0,0,0)" stroke="none" paint-order="stroke fill markers" d=" M 0.289 -0.25 L 0.289 -0.25 Q 0.289 -0.081 0.226 0.055 Q 0.17400000000000002 0.166 0.094 0.233 Q 0.073 0.25 0.067 0.25 Q 0.057 0.25 0.057 0.24 Q 0.057 0.23500000000000001 0.07 0.223 Q 0.231 0.059000000000000004 0.231 -0.25 Q 0.231 -0.555 0.081 -0.712 L 0.076 -0.717 Q 0.057 -0.735 0.057 -0.74 Q 0.057 -0.75 0.067 -0.75 Q 0.079 -0.75 0.12 -0.709 Q 0.182 -0.647 0.223 -0.562 Q 0.289 -0.426 0.289 -0.25 Z"/></g><g transform="translate(34.64464064321854,9.723647357142855)"><path fill="rgb(0,0,0)" stroke="none" paint-order="stroke fill markers" d=" M 0.159 -0.75 L 0.159 0.25 L 0.022 0.25 L 0.022 0.21 L 0.11900000000000001 0.21 L 0.11900000000000001 -0.71 L 0.022 -0.71 L 0.022 -0.75 L 0.159 -0.75 Z"/></g><rect fill="rgb(0,0,0)" stroke="none" x="18.85941842099632" y="10.130155857142855" width="16.063222222222226" height="0.039999"/><g transform="translate(22.541862865440766,11.086106357142855)"><path fill="rgb(0,0,0)" stroke="none" paint-order="stroke fill markers" d=" M 0.331 0.24 L 0.331 0.24 Q 0.331 0.25 0.321 0.25 Q 0.309 0.25 0.268 0.209 Q 0.20600000000000002 0.147 0.165 0.062 Q 0.099 -0.074 0.099 -0.25 Q 0.099 -0.419 0.162 -0.555 Q 0.214 -0.666 0.294 -0.733 Q 0.315 -0.75 0.321 -0.75 Q 0.331 -0.75 0.331 -0.74 Q 0.331 -0.735 0.318 -0.723 Q 0.157 -0.559 0.157 -0.25 Q 0.157 0.058 0.314 0.218 Q 0.331 0.23500000000000001 0.331 0.24 Z"/></g><g transform="translate(22.930862865440766,11.086106357142855)"><path fill="rgb(0,0,0)" stroke="none" paint-order="stroke fill markers" d=" M 0.294 -0.64 L 0.294 -0.079 Q 0.294 -0.049 0.306 -0.041 Q 0.323 -0.031 0.387 -0.031 L 0.419 -0.031 L 0.419 0 Q 0.384 -0.003 0.257 -0.003 Q 0.13 -0.003 0.095 0 L 0.095 -0.031 L 0.127 -0.031 Q 0.20400000000000001 -0.031 0.215 -0.049 L 0.216 -0.05 Q 0.22 -0.058 0.22 -0.079 L 0.22 -0.597 Q 0.168 -0.5710000000000001 0.089 -0.5710000000000001 L 0.089 -0.602 Q 0.209 -0.602 0.271 -0.666 Q 0.29 -0.666 0.293 -0.659 L 0.293 -0.659 L 0.293 -0.658 Q 0.294 -0.655 0.294 -0.64 Z"/></g><g transform="translate(23.653085087662987,11.086106357142855)"><path fill="rgb(0,0,0)" stroke="none" paint-order="stroke fill markers" d=" M 0.661 -0.23 L 0.116 -0.23 Q 0.084 -0.23 0.083 -0.25 Q 0.083 -0.27 0.116 -0.27 L 0.661 -0.27 Q 0.6930000000000001 -0.27 0.6940000000000001 -0.25 Q 0.6940000000000001 -0.23 0.661 -0.23 Z"/></g><g transform="translate(24.653307309885207,11.086106357142855)"><path fill="rgb(0,0,0)" stroke="none" paint-order="stroke fill markers" d=" M 0.028 0.169 L 0.18 -0.437 Q 0.209 -0.551 0.292 -0.631 Q 0.37 -0.705 0.456 -0.705 Q 0.539 -0.705 0.5750000000000001 -0.639 Q 0.59 -0.611 0.59 -0.577 Q 0.59 -0.502 0.528 -0.439 Q 0.507 -0.418 0.482 -0.403 Q 0.549 -0.357 0.549 -0.264 Q 0.549 -0.161 0.46900000000000003 -0.076 Q 0.392 0.005 0.296 0.012 L 0.28300000000000003 0.012 Q 0.186 0.012 0.14100000000000001 -0.063 Q 0.129 -0.083 0.123 -0.105 L 0.048 0.188 L 0.047 0.19 Q 0.043000000000000003 0.194 0.037 0.194 Q 0.025 0.194 0.025 0.184 Q 0.025 0.181 0.028 0.169 M 0.328 -0.401 Q 0.34500000000000003 -0.395 0.371 -0.395 Q 0.401 -0.395 0.419 -0.403 Q 0.406 -0.40900000000000003 0.379 -0.40900000000000003 Q 0.34400000000000003 -0.40900000000000003 0.328 -0.401 M 0.45 -0.421 Q 0.511 -0.467 0.525 -0.577 L 0.525 -0.578 L 0.525 -0.58 Q 0.527 -0.594 0.527 -0.602 Q 0.527 -0.673 0.46900000000000003 -0.682 Q 0.462 -0.683 0.455 -0.683 Q 0.372 -0.683 0.299 -0.606 Q 0.23 -0.534 0.2 -0.41600000000000004 L 0.154 -0.231 Q 0.14100000000000001 -0.179 0.14100000000000001 -0.156 Q 0.14100000000000001 -0.074 0.2 -0.034 Q 0.234 -0.01 0.281 -0.01 Q 0.359 -0.01 0.41500000000000004 -0.094 Q 0.422 -0.10300000000000001 0.427 -0.113 Q 0.462 -0.179 0.47400000000000003 -0.274 Q 0.47600000000000003 -0.291 0.47600000000000003 -0.302 Q 0.47600000000000003 -0.355 0.446 -0.386 Q 0.41400000000000003 -0.373 0.371 -0.373 Q 0.303 -0.373 0.303 -0.399 Q 0.303 -0.431 0.381 -0.431 Q 0.422 -0.431 0.45 -0.421 Z"/></g><g transform="translate(25.272307309885207,11.086106357142855)"><path fill="rgb(0,0,0)" stroke="none" paint-order="stroke fill markers" d=" M 0.289 -0.25 L 0.289 -0.25 Q 0.289 -0.081 0.226 0.055 Q 0.17400000000000002 0.166 0.094 0.233 Q 0.073 0.25 0.067 0.25 Q 0.057 0.25 0.057 0.24 Q 0.057 0.23500000000000001 0.07 0.223 Q 0.231 0.059000000000000004 0.231 -0.25 Q 0.231 -0.555 0.081 -0.712 L 0.076 -0.717 Q 0.057 -0.735 0.057 -0.74 Q 0.057 -0.75 0.067 -0.75 Q 0.079 -0.75 0.12 -0.709 Q 0.182 -0.647 0.223 -0.562 Q 0.289 -0.426 0.289 -0.25 Z"/></g><g transform="translate(25.661307309885206,11.086106357142855)"><path fill="rgb(0,0,0)" stroke="none" paint-order="stroke fill markers" d=" M 0.265 -0.373 L 0.265 -0.373 L 0.209 -0.152 Q 0.192 -0.088 0.182 -0.054 Q 0.166 -0.005 0.152 0.005 L 0.152 0.006 Q 0.14300000000000002 0.011 0.132 0.011 Q 0.109 0.011 0.10400000000000001 -0.009000000000000001 Q 0.10300000000000001 -0.012 0.10300000000000001 -0.016 Q 0.10300000000000001 -0.025 0.111 -0.04 Q 0.20500000000000002 -0.243 0.23900000000000002 -0.373 L 0.182 -0.373 Q 0.10400000000000001 -0.373 0.055 -0.296 Q 0.046 -0.28400000000000003 0.039 -0.28400000000000003 Q 0.027 -0.28400000000000003 0.027 -0.294 Q 0.027 -0.305 0.063 -0.354 Q 0.07 -0.362 0.076 -0.37 Q 0.079 -0.374 0.083 -0.378 Q 0.085 -0.381 0.088 -0.384 Q 0.132 -0.431 0.192 -0.431 L 0.527 -0.431 Q 0.561 -0.431 0.5660000000000001 -0.41600000000000004 L 0.5660000000000001 -0.41500000000000004 Q 0.5670000000000001 -0.41200000000000003 0.5670000000000001 -0.40700000000000003 Q 0.5670000000000001 -0.373 0.518 -0.373 L 0.404 -0.373 Q 0.386 -0.28800000000000003 0.386 -0.214 Q 0.386 -0.121 0.41500000000000004 -0.049 Q 0.421 -0.035 0.421 -0.027 Q 0.421 -0.004 0.396 0.007 Q 0.388 0.011 0.38 0.011 Q 0.36 0.011 0.35000000000000003 -0.017 Q 0.34700000000000003 -0.026000000000000002 0.34400000000000003 -0.039 Q 0.336 -0.073 0.336 -0.115 Q 0.336 -0.181 0.363 -0.306 L 0.378 -0.373 L 0.265 -0.373 Z"/></g><g transform="translate(26.48952953210743,11.086106357142855)"><path fill="rgb(0,0,0)" stroke="none" paint-order="stroke fill markers" d=" M 0.40900000000000003 -0.23 L 0.40900000000000003 0.05 Q 0.40900000000000003 0.082 0.389 0.083 Q 0.369 0.083 0.369 0.05 L 0.369 -0.23 L 0.089 -0.23 Q 0.057 -0.23 0.056 -0.25 Q 0.056 -0.27 0.089 -0.27 L 0.369 -0.27 L 0.369 -0.55 Q 0.369 -0.582 0.389 -0.583 Q 0.40900000000000003 -0.583 0.40900000000000003 -0.55 L 0.40900000000000003 -0.27 L 0.6880000000000001 -0.27 Q 0.72 -0.27 0.721 -0.25 Q 0.721 -0.23 0.6880000000000001 -0.23 L 0.40900000000000003 -0.23 Z"/></g><g transform="translate(27.48975175432965,11.086106357142855)"><path fill="rgb(0,0,0)" stroke="none" paint-order="stroke fill markers" d=" M 0.47700000000000004 -0.23600000000000002 L 0.47700000000000004 -0.23600000000000002 L 0.47700000000000004 -0.17400000000000002 Q 0.542 -0.255 0.5750000000000001 -0.372 Q 0.585 -0.392 0.59 -0.393 Q 0.602 -0.393 0.602 -0.383 Q 0.602 -0.366 0.579 -0.307 Q 0.545 -0.221 0.487 -0.148 Q 0.47700000000000004 -0.128 0.47700000000000004 -0.113 Q 0.47700000000000004 -0.011 0.508 -0.011 Q 0.539 -0.011 0.558 -0.046 Q 0.561 -0.052000000000000005 0.5640000000000001 -0.06 Q 0.5680000000000001 -0.07 0.577 -0.07 Q 0.589 -0.07 0.589 -0.06 Q 0.589 -0.041 0.5640000000000001 -0.015 Q 0.538 0.011 0.505 0.011 Q 0.442 0.011 0.418 -0.058 Q 0.41600000000000004 -0.065 0.41400000000000003 -0.073 Q 0.309 0.011 0.203 0.011 Q 0.109 0.011 0.065 -0.064 Q 0.041 -0.105 0.041 -0.158 Q 0.041 -0.26 0.11900000000000001 -0.34700000000000003 Q 0.196 -0.433 0.293 -0.441 Q 0.302 -0.442 0.31 -0.442 Q 0.394 -0.442 0.44 -0.376 Q 0.44 -0.375 0.441 -0.375 Q 0.47700000000000004 -0.322 0.47700000000000004 -0.23600000000000002 M 0.41000000000000003 -0.099 L 0.41000000000000003 -0.099 Q 0.40800000000000003 -0.116 0.40800000000000003 -0.211 Q 0.40800000000000003 -0.334 0.381 -0.379 Q 0.369 -0.399 0.352 -0.40900000000000003 L 0.35100000000000003 -0.41000000000000003 L 0.35100000000000003 -0.41000000000000003 L 0.35000000000000003 -0.41000000000000003 Q 0.332 -0.42 0.309 -0.42 Q 0.23800000000000002 -0.42 0.181 -0.34 L 0.17300000000000001 -0.328 Q 0.137 -0.27 0.12 -0.166 Q 0.115 -0.138 0.115 -0.12 Q 0.115 -0.036000000000000004 0.17400000000000002 -0.016 Q 0.188 -0.011 0.20500000000000002 -0.011 Q 0.309 -0.011 0.41000000000000003 -0.099 Z"/></g><g transform="translate(28.133751754329648,11.086106357142855)"><path fill="rgb(0,0,0)" stroke="none" paint-order="stroke fill markers" d=" M 0.331 0.24 L 0.331 0.24 Q 0.331 0.25 0.321 0.25 Q 0.309 0.25 0.268 0.209 Q 0.20600000000000002 0.147 0.165 0.062 Q 0.099 -0.074 0.099 -0.25 Q 0.099 -0.419 0.162 -0.555 Q 0.214 -0.666 0.294 -0.733 Q 0.315 -0.75 0.321 -0.75 Q 0.331 -0.75 0.331 -0.74 Q 0.331 -0.735 0.318 -0.723 Q 0.157 -0.559 0.157 -0.25 Q 0.157 0.058 0.314 0.218 Q 0.331 0.23500000000000001 0.331 0.24 Z"/></g><g transform="translate(28.522751754329647,11.086106357142855)"><path fill="rgb(0,0,0)" stroke="none" paint-order="stroke fill markers" d=" M 0.294 -0.64 L 0.294 -0.079 Q 0.294 -0.049 0.306 -0.041 Q 0.323 -0.031 0.387 -0.031 L 0.419 -0.031 L 0.419 0 Q 0.384 -0.003 0.257 -0.003 Q 0.13 -0.003 0.095 0 L 0.095 -0.031 L 0.127 -0.031 Q 0.20400000000000001 -0.031 0.215 -0.049 L 0.216 -0.05 Q 0.22 -0.058 0.22 -0.079 L 0.22 -0.597 Q 0.168 -0.5710000000000001 0.089 -0.5710000000000001 L 0.089 -0.602 Q 0.209 -0.602 0.271 -0.666 Q 0.29 -0.666 0.293 -0.659 L 0.293 -0.659 L 0.293 -0.658 Q 0.294 -0.655 0.294 -0.64 Z"/></g><g transform="translate(29.24497397655187,11.086106357142855)"><path fill="rgb(0,0,0)" stroke="none" paint-order="stroke fill markers" d=" M 0.661 -0.23 L 0.116 -0.23 Q 0.084 -0.23 0.083 -0.25 Q 0.083 -0.27 0.116 -0.27 L 0.661 -0.27 Q 0.6930000000000001 -0.27 0.6940000000000001 -0.25 Q 0.6940000000000001 -0.23 0.661 -0.23 Z"/></g><g transform="translate(30.24519619877409,11.086106357142855)"><path fill="rgb(0,0,0)" stroke="none" paint-order="stroke fill markers" d=" M 0.265 -0.373 L 0.265 -0.373 L 0.209 -0.152 Q 0.192 -0.088 0.182 -0.054 Q 0.166 -0.005 0.152 0.005 L 0.152 0.006 Q 0.14300000000000002 0.011 0.132 0.011 Q 0.109 0.011 0.10400000000000001 -0.009000000000000001 Q 0.10300000000000001 -0.012 0.10300000000000001 -0.016 Q 0.10300000000000001 -0.025 0.111 -0.04 Q 0.20500000000000002 -0.243 0.23900000000000002 -0.373 L 0.182 -0.373 Q 0.10400000000000001 -0.373 0.055 -0.296 Q 0.046 -0.28400000000000003 0.039 -0.28400000000000003 Q 0.027 -0.28400000000000003 0.027 -0.294 Q 0.027 -0.305 0.063 -0.354 Q 0.07 -0.362 0.076 -0.37 Q 0.079 -0.374 0.083 -0.378 Q 0.085 -0.381 0.088 -0.384 Q 0.132 -0.431 0.192 -0.431 L 0.527 -0.431 Q 0.561 -0.431 0.5660000000000001 -0.41600000000000004 L 0.5660000000000001 -0.41500000000000004 Q 0.5670000000000001 -0.41200000000000003 0.5670000000000001 -0.40700000000000003 Q 0.5670000000000001 -0.373 0.518 -0.373 L 0.404 -0.373 Q 0.386 -0.28800000000000003 0.386 -0.214 Q 0.386 -0.121 0.41500000000000004 -0.049 Q 0.421 -0.035 0.421 -0.027 Q 0.421 -0.004 0.396 0.007 Q 0.388 0.011 0.38 0.011 Q 0.36 0.011 0.35000000000000003 -0.017 Q 0.34700000000000003 -0.026000000000000002 0.34400000000000003 -0.039 Q 0.336 -0.073 0.336 -0.115 Q 0.336 -0.181 0.363 -0.306 L 0.378 -0.373 L 0.265 -0.373 Z"/></g><g transform="translate(30.85119619877409,11.086106357142855)"><path fill="rgb(0,0,0)" stroke="none" paint-order="stroke fill markers" d=" M 0.289 -0.25 L 0.289 -0.25 Q 0.289 -0.081 0.226 0.055 Q 0.17400000000000002 0.166 0.094 0.233 Q 0.073 0.25 0.067 0.25 Q 0.057 0.25 0.057 0.24 Q 0.057 0.23500000000000001 0.07 0.223 Q 0.231 0.059000000000000004 0.231 -0.25 Q 0.231 -0.555 0.081 -0.712 L 0.076 -0.717 Q 0.057 -0.735 0.057 -0.74 Q 0.057 -0.75 0.067 -0.75 Q 0.079 -0.75 0.12 -0.709 Q 0.182 -0.647 0.223 -0.562 Q 0.289 -0.426 0.289 -0.25 Z"/></g></g><path fill="rgb(255,255,255)" stroke="none" paint-order="stroke fill markers" fill-rule="evenodd" d=" M 37.5 109 L 166.5 109 C 168.43299662440776 109 170 110.56700337559222 170 112.5 L 170 140.5 C 170 142.43299662440776 168.43299662440776 144 166.5 144 L 37.5 144 C 35.56700337559222 144 34 142.43299662440776 34 140.5 L 34 112.5 C 34 110.56700337559222 35.56700337559222 109 37.5 109 Z" fill-opacity="1"/><path fill="none" stroke="rgb(179,179,179)" paint-order="fill stroke markers" d=" M 37.5 109 L 166.5 109 C 168.43299662440776 109 170 110.56700337559222 170 112.5 L 170 140.5 C 170 142.43299662440776 168.43299662440776 144 166.5 144 L 37.5 144 C 35.56700337559222 144 34 142.43299662440776 34 140.5 L 34 112.5 C 34 110.56700337559222 35.56700337559222 109 37.5 109 Z" stroke-opacity="1" stroke-linecap="round" stroke-linejoin="round" stroke-miterlimit="10"/><text fill="rgb(0,0,0)" stroke="none" font-family="geogebra-sans-serif, sans-serif" font-size="24px" font-style="normal" font-weight="normal" text-decoration="normal" x="44" y="136" text-anchor="start" dominant-baseline="alphabetic" fill-opacity="1">Show SVG</text><path fill="rgb(255,255,255)" stroke="none" paint-order="stroke fill markers" fill-rule="evenodd" d=" M 204.5 106 L 380.5 106 C 382.4329966244078 106 384 107.56700337559222 384 109.5 L 384 137.5 C 384 139.43299662440776 382.4329966244078 141 380.5 141 L 204.5 141 C 202.56700337559224 141 201 139.43299662440776 201 137.5 L 201 109.5 C 201 107.56700337559222 202.56700337559224 106 204.5 106 Z" fill-opacity="1"/><path fill="none" stroke="rgb(179,179,179)" paint-order="fill stroke markers" d=" M 204.5 106 L 380.5 106 C 382.4329966244078 106 384 107.56700337559222 384 109.5 L 384 137.5 C 384 139.43299662440776 382.4329966244078 141 380.5 141 L 204.5 141 C 202.56700337559224 141 201 139.43299662440776 201 137.5 L 201 109.5 C 201 107.56700337559222 202.56700337559224 106 204.5 106 Z" stroke-opacity="1" stroke-linecap="round" stroke-linejoin="round" stroke-miterlimit="10"/><text fill="rgb(0,0,0)" stroke="none" font-family="geogebra-sans-serif, sans-serif" font-size="24px" font-style="normal" font-weight="normal" text-decoration="normal" x="211" y="133" text-anchor="start" dominant-baseline="alphabetic" fill-opacity="1">Download SVG</text><path fill="rgb(255,255,255)" stroke="none" paint-order="stroke fill markers" fill-rule="evenodd" d=" M 212 30 L 722 30 C 724.2091389993232 30 726 31.790861000676827 726 34 L 726 75 C 726 77.20913899932317 724.2091389993232 79 722 79 L 212 79 C 209.7908610006768 79 208 77.20913899932317 208 75 L 208 34 C 208 31.790861000676827 209.7908610006768 30 212 30 Z" fill-opacity="1"/><path fill="none" stroke="rgb(180,179,186)" paint-order="fill stroke markers" d=" M 212 30 L 722 30 C 724.2091389993232 30 726 31.790861000676827 726 34 L 726 75 C 726 77.20913899932317 724.2091389993232 79 722 79 L 212 79 C 209.7908610006768 79 208 77.20913899932317 208 75 L 208 34 C 208 31.790861000676827 209.7908610006768 30 212 30 Z" stroke-opacity="1" stroke-linecap="round" stroke-linejoin="round" stroke-miterlimit="10"/><text fill="rgb(0,0,0)" stroke="none" font-family="geogebra-sans-serif, sans-serif" font-size="32px" font-style="normal" font-weight="normal" text-decoration="normal" x="210" y="66" text-anchor="start" dominant-baseline="alphabetic" fill-opacity="1">u = \frac{P</text><text fill="rgb(0,0,0)" stroke="none" font-family="geogebra-sans-serif, sans-serif" font-size="28px" font-style="normal" font-weight="normal" text-decoration="normal" x="359" y="80" text-anchor="start" dominant-baseline="alphabetic" fill-opacity="1">o</text><text fill="rgb(0,0,0)" stroke="none" font-family="geogebra-sans-serif, sans-serif" font-size="32px" font-style="normal" font-weight="normal" text-decoration="normal" x="375" y="66" text-anchor="start" dominant-baseline="alphabetic" fill-opacity="1"> \left[ \alpha (1 - \pi) - (</text><text fill="rgb(0,0,0)" stroke="none" font-family="geogebra-sans-serif, sans-serif" font-size="32px" font-style="normal" font-weight="normal" text-decoration="normal" x="30" y="66" text-anchor="start" dominant-baseline="alphabetic" fill-opacity="1">Enter LaTeX</text></g></g></g></g></svg>